<?xml version="1.0" encoding="utf-8" standalone="no"?>
<!DOCTYPE svg PUBLIC "-//W3C//DTD SVG 1.1//EN"
  "http://www.w3.org/Graphics/SVG/1.1/DTD/svg11.dtd">
<svg xmlns:xlink="http://www.w3.org/1999/xlink" width="712.799375pt" height="856.222125pt" viewBox="0 0 712.799375 856.222125" xmlns="http://www.w3.org/2000/svg" version="1.1">
 <metadata>
  <rdf:RDF xmlns:dc="http://purl.org/dc/elements/1.1/" xmlns:cc="http://creativecommons.org/ns#" xmlns:rdf="http://www.w3.org/1999/02/22-rdf-syntax-ns#">
   <cc:Work>
    <dc:type rdf:resource="http://purl.org/dc/dcmitype/StillImage"/>
    <dc:date>2026-01-31T00:19:42.174599</dc:date>
    <dc:format>image/svg+xml</dc:format>
    <dc:creator>
     <cc:Agent>
      <dc:title>Matplotlib v3.8.2, https://matplotlib.org/</dc:title>
     </cc:Agent>
    </dc:creator>
   </cc:Work>
  </rdf:RDF>
 </metadata>
 <defs>
  <style type="text/css">*{stroke-linejoin: round; stroke-linecap: butt}</style>
 </defs>
 <g id="figure_1">
  <g id="patch_1">
   <path d="M 0 856.222125 
L 712.799375 856.222125 
L 712.799375 0 
L 0 0 
z
" style="fill: #ffffff"/>
  </g>
  <g id="axes_1">
   <g id="patch_2">
    <path d="M 26.809375 822.054 
L 705.599375 822.054 
L 705.599375 38.568 
L 26.809375 38.568 
z
" style="fill: #ffffff"/>
   </g>
   <g id="matplotlib.axis_1">
    <g id="xtick_1">
     <g id="line2d_1">
      <path d="M 26.809375 822.054 
L 26.809375 38.568 
" clip-path="url(#p2df02c3877)" style="fill: none; stroke: #cccccc; stroke-width: 0.8; stroke-linecap: round"/>
     </g>
     <g id="line2d_2"/>
     <g id="text_1">
      <!-- 0 -->
      <g style="fill: #262626" transform="translate(24.028906 832.711812) scale(0.1 -0.1)">
       <defs>
        <path id="ArialMT-30" d="M 266 2259 
Q 266 3072 433 3567 
Q 600 4063 929 4331 
Q 1259 4600 1759 4600 
Q 2128 4600 2406 4451 
Q 2684 4303 2865 4023 
Q 3047 3744 3150 3342 
Q 3253 2941 3253 2259 
Q 3253 1453 3087 958 
Q 2922 463 2592 192 
Q 2263 -78 1759 -78 
Q 1097 -78 719 397 
Q 266 969 266 2259 
z
M 844 2259 
Q 844 1131 1108 757 
Q 1372 384 1759 384 
Q 2147 384 2411 759 
Q 2675 1134 2675 2259 
Q 2675 3391 2411 3762 
Q 2147 4134 1753 4134 
Q 1366 4134 1134 3806 
Q 844 3388 844 2259 
z
" transform="scale(0.015625)"/>
       </defs>
       <use xlink:href="#ArialMT-30"/>
      </g>
     </g>
    </g>
    <g id="xtick_2">
     <g id="line2d_3">
      <path d="M 159.788462 822.054 
L 159.788462 38.568 
" clip-path="url(#p2df02c3877)" style="fill: none; stroke: #cccccc; stroke-width: 0.8; stroke-linecap: round"/>
     </g>
     <g id="line2d_4"/>
     <g id="text_2">
      <!-- 100 -->
      <g style="fill: #262626" transform="translate(151.447056 832.711812) scale(0.1 -0.1)">
       <defs>
        <path id="ArialMT-31" d="M 2384 0 
L 1822 0 
L 1822 3584 
Q 1619 3391 1289 3197 
Q 959 3003 697 2906 
L 697 3450 
Q 1169 3672 1522 3987 
Q 1875 4303 2022 4600 
L 2384 4600 
L 2384 0 
z
" transform="scale(0.015625)"/>
       </defs>
       <use xlink:href="#ArialMT-31"/>
       <use xlink:href="#ArialMT-30" x="55.615234"/>
       <use xlink:href="#ArialMT-30" x="111.230469"/>
      </g>
     </g>
    </g>
    <g id="xtick_3">
     <g id="line2d_5">
      <path d="M 292.76755 822.054 
L 292.76755 38.568 
" clip-path="url(#p2df02c3877)" style="fill: none; stroke: #cccccc; stroke-width: 0.8; stroke-linecap: round"/>
     </g>
     <g id="line2d_6"/>
     <g id="text_3">
      <!-- 200 -->
      <g style="fill: #262626" transform="translate(284.426144 832.711812) scale(0.1 -0.1)">
       <defs>
        <path id="ArialMT-32" d="M 3222 541 
L 3222 0 
L 194 0 
Q 188 203 259 391 
Q 375 700 629 1000 
Q 884 1300 1366 1694 
Q 2113 2306 2375 2664 
Q 2638 3022 2638 3341 
Q 2638 3675 2398 3904 
Q 2159 4134 1775 4134 
Q 1369 4134 1125 3890 
Q 881 3647 878 3216 
L 300 3275 
Q 359 3922 746 4261 
Q 1134 4600 1788 4600 
Q 2447 4600 2831 4234 
Q 3216 3869 3216 3328 
Q 3216 3053 3103 2787 
Q 2991 2522 2730 2228 
Q 2469 1934 1863 1422 
Q 1356 997 1212 845 
Q 1069 694 975 541 
L 3222 541 
z
" transform="scale(0.015625)"/>
       </defs>
       <use xlink:href="#ArialMT-32"/>
       <use xlink:href="#ArialMT-30" x="55.615234"/>
       <use xlink:href="#ArialMT-30" x="111.230469"/>
      </g>
     </g>
    </g>
    <g id="xtick_4">
     <g id="line2d_7">
      <path d="M 425.746637 822.054 
L 425.746637 38.568 
" clip-path="url(#p2df02c3877)" style="fill: none; stroke: #cccccc; stroke-width: 0.8; stroke-linecap: round"/>
     </g>
     <g id="line2d_8"/>
     <g id="text_4">
      <!-- 300 -->
      <g style="fill: #262626" transform="translate(417.405231 832.711812) scale(0.1 -0.1)">
       <defs>
        <path id="ArialMT-33" d="M 269 1209 
L 831 1284 
Q 928 806 1161 595 
Q 1394 384 1728 384 
Q 2125 384 2398 659 
Q 2672 934 2672 1341 
Q 2672 1728 2419 1979 
Q 2166 2231 1775 2231 
Q 1616 2231 1378 2169 
L 1441 2663 
Q 1497 2656 1531 2656 
Q 1891 2656 2178 2843 
Q 2466 3031 2466 3422 
Q 2466 3731 2256 3934 
Q 2047 4138 1716 4138 
Q 1388 4138 1169 3931 
Q 950 3725 888 3313 
L 325 3413 
Q 428 3978 793 4289 
Q 1159 4600 1703 4600 
Q 2078 4600 2393 4439 
Q 2709 4278 2876 4000 
Q 3044 3722 3044 3409 
Q 3044 3113 2884 2869 
Q 2725 2625 2413 2481 
Q 2819 2388 3044 2092 
Q 3269 1797 3269 1353 
Q 3269 753 2831 336 
Q 2394 -81 1725 -81 
Q 1122 -81 723 278 
Q 325 638 269 1209 
z
" transform="scale(0.015625)"/>
       </defs>
       <use xlink:href="#ArialMT-33"/>
       <use xlink:href="#ArialMT-30" x="55.615234"/>
       <use xlink:href="#ArialMT-30" x="111.230469"/>
      </g>
     </g>
    </g>
    <g id="xtick_5">
     <g id="line2d_9">
      <path d="M 558.725725 822.054 
L 558.725725 38.568 
" clip-path="url(#p2df02c3877)" style="fill: none; stroke: #cccccc; stroke-width: 0.8; stroke-linecap: round"/>
     </g>
     <g id="line2d_10"/>
     <g id="text_5">
      <!-- 400 -->
      <g style="fill: #262626" transform="translate(550.384319 832.711812) scale(0.1 -0.1)">
       <defs>
        <path id="ArialMT-34" d="M 2069 0 
L 2069 1097 
L 81 1097 
L 81 1613 
L 2172 4581 
L 2631 4581 
L 2631 1613 
L 3250 1613 
L 3250 1097 
L 2631 1097 
L 2631 0 
L 2069 0 
z
M 2069 1613 
L 2069 3678 
L 634 1613 
L 2069 1613 
z
" transform="scale(0.015625)"/>
       </defs>
       <use xlink:href="#ArialMT-34"/>
       <use xlink:href="#ArialMT-30" x="55.615234"/>
       <use xlink:href="#ArialMT-30" x="111.230469"/>
      </g>
     </g>
    </g>
    <g id="xtick_6">
     <g id="line2d_11">
      <path d="M 691.704812 822.054 
L 691.704812 38.568 
" clip-path="url(#p2df02c3877)" style="fill: none; stroke: #cccccc; stroke-width: 0.8; stroke-linecap: round"/>
     </g>
     <g id="line2d_12"/>
     <g id="text_6">
      <!-- 500 -->
      <g style="fill: #262626" transform="translate(683.363406 832.711812) scale(0.1 -0.1)">
       <defs>
        <path id="ArialMT-35" d="M 266 1200 
L 856 1250 
Q 922 819 1161 601 
Q 1400 384 1738 384 
Q 2144 384 2425 690 
Q 2706 997 2706 1503 
Q 2706 1984 2436 2262 
Q 2166 2541 1728 2541 
Q 1456 2541 1237 2417 
Q 1019 2294 894 2097 
L 366 2166 
L 809 4519 
L 3088 4519 
L 3088 3981 
L 1259 3981 
L 1013 2750 
Q 1425 3038 1878 3038 
Q 2478 3038 2890 2622 
Q 3303 2206 3303 1553 
Q 3303 931 2941 478 
Q 2500 -78 1738 -78 
Q 1113 -78 717 272 
Q 322 622 266 1200 
z
" transform="scale(0.015625)"/>
       </defs>
       <use xlink:href="#ArialMT-35"/>
       <use xlink:href="#ArialMT-30" x="55.615234"/>
       <use xlink:href="#ArialMT-30" x="111.230469"/>
      </g>
     </g>
    </g>
    <g id="text_7">
     <!-- SAIDI (Minutes per Year) -->
     <g style="fill: #262626" transform="translate(305.368359 846.706969) scale(0.11 -0.11)">
      <defs>
       <path id="ArialMT-53" d="M 288 1472 
L 859 1522 
Q 900 1178 1048 958 
Q 1197 738 1509 602 
Q 1822 466 2213 466 
Q 2559 466 2825 569 
Q 3091 672 3220 851 
Q 3350 1031 3350 1244 
Q 3350 1459 3225 1620 
Q 3100 1781 2813 1891 
Q 2628 1963 1997 2114 
Q 1366 2266 1113 2400 
Q 784 2572 623 2826 
Q 463 3081 463 3397 
Q 463 3744 659 4045 
Q 856 4347 1234 4503 
Q 1613 4659 2075 4659 
Q 2584 4659 2973 4495 
Q 3363 4331 3572 4012 
Q 3781 3694 3797 3291 
L 3216 3247 
Q 3169 3681 2898 3903 
Q 2628 4125 2100 4125 
Q 1550 4125 1298 3923 
Q 1047 3722 1047 3438 
Q 1047 3191 1225 3031 
Q 1400 2872 2139 2705 
Q 2878 2538 3153 2413 
Q 3553 2228 3743 1945 
Q 3934 1663 3934 1294 
Q 3934 928 3725 604 
Q 3516 281 3123 101 
Q 2731 -78 2241 -78 
Q 1619 -78 1198 103 
Q 778 284 539 648 
Q 300 1013 288 1472 
z
" transform="scale(0.015625)"/>
       <path id="ArialMT-41" d="M -9 0 
L 1750 4581 
L 2403 4581 
L 4278 0 
L 3588 0 
L 3053 1388 
L 1138 1388 
L 634 0 
L -9 0 
z
M 1313 1881 
L 2866 1881 
L 2388 3150 
Q 2169 3728 2063 4100 
Q 1975 3659 1816 3225 
L 1313 1881 
z
" transform="scale(0.015625)"/>
       <path id="ArialMT-49" d="M 597 0 
L 597 4581 
L 1203 4581 
L 1203 0 
L 597 0 
z
" transform="scale(0.015625)"/>
       <path id="ArialMT-44" d="M 494 0 
L 494 4581 
L 2072 4581 
Q 2606 4581 2888 4516 
Q 3281 4425 3559 4188 
Q 3922 3881 4101 3404 
Q 4281 2928 4281 2316 
Q 4281 1794 4159 1391 
Q 4038 988 3847 723 
Q 3656 459 3429 307 
Q 3203 156 2883 78 
Q 2563 0 2147 0 
L 494 0 
z
M 1100 541 
L 2078 541 
Q 2531 541 2789 625 
Q 3047 709 3200 863 
Q 3416 1078 3536 1442 
Q 3656 1806 3656 2325 
Q 3656 3044 3420 3430 
Q 3184 3816 2847 3947 
Q 2603 4041 2063 4041 
L 1100 4041 
L 1100 541 
z
" transform="scale(0.015625)"/>
       <path id="ArialMT-20" transform="scale(0.015625)"/>
       <path id="ArialMT-28" d="M 1497 -1347 
Q 1031 -759 709 28 
Q 388 816 388 1659 
Q 388 2403 628 3084 
Q 909 3875 1497 4659 
L 1900 4659 
Q 1522 4009 1400 3731 
Q 1209 3300 1100 2831 
Q 966 2247 966 1656 
Q 966 153 1900 -1347 
L 1497 -1347 
z
" transform="scale(0.015625)"/>
       <path id="ArialMT-4d" d="M 475 0 
L 475 4581 
L 1388 4581 
L 2472 1338 
Q 2622 884 2691 659 
Q 2769 909 2934 1394 
L 4031 4581 
L 4847 4581 
L 4847 0 
L 4263 0 
L 4263 3834 
L 2931 0 
L 2384 0 
L 1059 3900 
L 1059 0 
L 475 0 
z
" transform="scale(0.015625)"/>
       <path id="ArialMT-69" d="M 425 3934 
L 425 4581 
L 988 4581 
L 988 3934 
L 425 3934 
z
M 425 0 
L 425 3319 
L 988 3319 
L 988 0 
L 425 0 
z
" transform="scale(0.015625)"/>
       <path id="ArialMT-6e" d="M 422 0 
L 422 3319 
L 928 3319 
L 928 2847 
Q 1294 3394 1984 3394 
Q 2284 3394 2536 3286 
Q 2788 3178 2913 3003 
Q 3038 2828 3088 2588 
Q 3119 2431 3119 2041 
L 3119 0 
L 2556 0 
L 2556 2019 
Q 2556 2363 2490 2533 
Q 2425 2703 2258 2804 
Q 2091 2906 1866 2906 
Q 1506 2906 1245 2678 
Q 984 2450 984 1813 
L 984 0 
L 422 0 
z
" transform="scale(0.015625)"/>
       <path id="ArialMT-75" d="M 2597 0 
L 2597 488 
Q 2209 -75 1544 -75 
Q 1250 -75 995 37 
Q 741 150 617 320 
Q 494 491 444 738 
Q 409 903 409 1263 
L 409 3319 
L 972 3319 
L 972 1478 
Q 972 1038 1006 884 
Q 1059 663 1231 536 
Q 1403 409 1656 409 
Q 1909 409 2131 539 
Q 2353 669 2445 892 
Q 2538 1116 2538 1541 
L 2538 3319 
L 3100 3319 
L 3100 0 
L 2597 0 
z
" transform="scale(0.015625)"/>
       <path id="ArialMT-74" d="M 1650 503 
L 1731 6 
Q 1494 -44 1306 -44 
Q 1000 -44 831 53 
Q 663 150 594 308 
Q 525 466 525 972 
L 525 2881 
L 113 2881 
L 113 3319 
L 525 3319 
L 525 4141 
L 1084 4478 
L 1084 3319 
L 1650 3319 
L 1650 2881 
L 1084 2881 
L 1084 941 
Q 1084 700 1114 631 
Q 1144 563 1211 522 
Q 1278 481 1403 481 
Q 1497 481 1650 503 
z
" transform="scale(0.015625)"/>
       <path id="ArialMT-65" d="M 2694 1069 
L 3275 997 
Q 3138 488 2766 206 
Q 2394 -75 1816 -75 
Q 1088 -75 661 373 
Q 234 822 234 1631 
Q 234 2469 665 2931 
Q 1097 3394 1784 3394 
Q 2450 3394 2872 2941 
Q 3294 2488 3294 1666 
Q 3294 1616 3291 1516 
L 816 1516 
Q 847 969 1125 678 
Q 1403 388 1819 388 
Q 2128 388 2347 550 
Q 2566 713 2694 1069 
z
M 847 1978 
L 2700 1978 
Q 2663 2397 2488 2606 
Q 2219 2931 1791 2931 
Q 1403 2931 1139 2672 
Q 875 2413 847 1978 
z
" transform="scale(0.015625)"/>
       <path id="ArialMT-73" d="M 197 991 
L 753 1078 
Q 800 744 1014 566 
Q 1228 388 1613 388 
Q 2000 388 2187 545 
Q 2375 703 2375 916 
Q 2375 1106 2209 1216 
Q 2094 1291 1634 1406 
Q 1016 1563 777 1677 
Q 538 1791 414 1992 
Q 291 2194 291 2438 
Q 291 2659 392 2848 
Q 494 3038 669 3163 
Q 800 3259 1026 3326 
Q 1253 3394 1513 3394 
Q 1903 3394 2198 3281 
Q 2494 3169 2634 2976 
Q 2775 2784 2828 2463 
L 2278 2388 
Q 2241 2644 2061 2787 
Q 1881 2931 1553 2931 
Q 1166 2931 1000 2803 
Q 834 2675 834 2503 
Q 834 2394 903 2306 
Q 972 2216 1119 2156 
Q 1203 2125 1616 2013 
Q 2213 1853 2448 1751 
Q 2684 1650 2818 1456 
Q 2953 1263 2953 975 
Q 2953 694 2789 445 
Q 2625 197 2315 61 
Q 2006 -75 1616 -75 
Q 969 -75 630 194 
Q 291 463 197 991 
z
" transform="scale(0.015625)"/>
       <path id="ArialMT-70" d="M 422 -1272 
L 422 3319 
L 934 3319 
L 934 2888 
Q 1116 3141 1344 3267 
Q 1572 3394 1897 3394 
Q 2322 3394 2647 3175 
Q 2972 2956 3137 2557 
Q 3303 2159 3303 1684 
Q 3303 1175 3120 767 
Q 2938 359 2589 142 
Q 2241 -75 1856 -75 
Q 1575 -75 1351 44 
Q 1128 163 984 344 
L 984 -1272 
L 422 -1272 
z
M 931 1641 
Q 931 1000 1190 694 
Q 1450 388 1819 388 
Q 2194 388 2461 705 
Q 2728 1022 2728 1688 
Q 2728 2322 2467 2637 
Q 2206 2953 1844 2953 
Q 1484 2953 1207 2617 
Q 931 2281 931 1641 
z
" transform="scale(0.015625)"/>
       <path id="ArialMT-72" d="M 416 0 
L 416 3319 
L 922 3319 
L 922 2816 
Q 1116 3169 1280 3281 
Q 1444 3394 1641 3394 
Q 1925 3394 2219 3213 
L 2025 2691 
Q 1819 2813 1613 2813 
Q 1428 2813 1281 2702 
Q 1134 2591 1072 2394 
Q 978 2094 978 1738 
L 978 0 
L 416 0 
z
" transform="scale(0.015625)"/>
       <path id="ArialMT-59" d="M 1784 0 
L 1784 1941 
L 19 4581 
L 756 4581 
L 1659 3200 
Q 1909 2813 2125 2425 
Q 2331 2784 2625 3234 
L 3513 4581 
L 4219 4581 
L 2391 1941 
L 2391 0 
L 1784 0 
z
" transform="scale(0.015625)"/>
       <path id="ArialMT-61" d="M 2588 409 
Q 2275 144 1986 34 
Q 1697 -75 1366 -75 
Q 819 -75 525 192 
Q 231 459 231 875 
Q 231 1119 342 1320 
Q 453 1522 633 1644 
Q 813 1766 1038 1828 
Q 1203 1872 1538 1913 
Q 2219 1994 2541 2106 
Q 2544 2222 2544 2253 
Q 2544 2597 2384 2738 
Q 2169 2928 1744 2928 
Q 1347 2928 1158 2789 
Q 969 2650 878 2297 
L 328 2372 
Q 403 2725 575 2942 
Q 747 3159 1072 3276 
Q 1397 3394 1825 3394 
Q 2250 3394 2515 3294 
Q 2781 3194 2906 3042 
Q 3031 2891 3081 2659 
Q 3109 2516 3109 2141 
L 3109 1391 
Q 3109 606 3145 398 
Q 3181 191 3288 0 
L 2700 0 
Q 2613 175 2588 409 
z
M 2541 1666 
Q 2234 1541 1622 1453 
Q 1275 1403 1131 1340 
Q 988 1278 909 1158 
Q 831 1038 831 891 
Q 831 666 1001 516 
Q 1172 366 1500 366 
Q 1825 366 2078 508 
Q 2331 650 2450 897 
Q 2541 1088 2541 1459 
L 2541 1666 
z
" transform="scale(0.015625)"/>
       <path id="ArialMT-29" d="M 791 -1347 
L 388 -1347 
Q 1322 153 1322 1656 
Q 1322 2244 1188 2822 
Q 1081 3291 891 3722 
Q 769 4003 388 4659 
L 791 4659 
Q 1378 3875 1659 3084 
Q 1900 2403 1900 1659 
Q 1900 816 1576 28 
Q 1253 -759 791 -1347 
z
" transform="scale(0.015625)"/>
      </defs>
      <use xlink:href="#ArialMT-53"/>
      <use xlink:href="#ArialMT-41" x="66.699219"/>
      <use xlink:href="#ArialMT-49" x="133.398438"/>
      <use xlink:href="#ArialMT-44" x="161.181641"/>
      <use xlink:href="#ArialMT-49" x="233.398438"/>
      <use xlink:href="#ArialMT-20" x="261.181641"/>
      <use xlink:href="#ArialMT-28" x="288.964844"/>
      <use xlink:href="#ArialMT-4d" x="322.265625"/>
      <use xlink:href="#ArialMT-69" x="405.566406"/>
      <use xlink:href="#ArialMT-6e" x="427.783203"/>
      <use xlink:href="#ArialMT-75" x="483.398438"/>
      <use xlink:href="#ArialMT-74" x="539.013672"/>
      <use xlink:href="#ArialMT-65" x="566.796875"/>
      <use xlink:href="#ArialMT-73" x="622.412109"/>
      <use xlink:href="#ArialMT-20" x="672.412109"/>
      <use xlink:href="#ArialMT-70" x="700.195312"/>
      <use xlink:href="#ArialMT-65" x="755.810547"/>
      <use xlink:href="#ArialMT-72" x="811.425781"/>
      <use xlink:href="#ArialMT-20" x="844.726562"/>
      <use xlink:href="#ArialMT-59" x="870.759766"/>
      <use xlink:href="#ArialMT-65" x="928.333984"/>
      <use xlink:href="#ArialMT-61" x="983.949219"/>
      <use xlink:href="#ArialMT-72" x="1039.564453"/>
      <use xlink:href="#ArialMT-29" x="1072.865234"/>
     </g>
    </g>
   </g>
   <g id="matplotlib.axis_2">
    <g id="ytick_1">
     <g id="line2d_13">
      <path d="M 26.809375 780.832654 
L 705.599375 780.832654 
" clip-path="url(#p2df02c3877)" style="fill: none; stroke: #cccccc; stroke-width: 0.8; stroke-linecap: round"/>
     </g>
     <g id="line2d_14"/>
     <g id="text_8">
      <!-- DC -->
      <g style="fill: #262626" transform="translate(8.865625 784.41156) scale(0.1 -0.1)">
       <defs>
        <path id="ArialMT-43" d="M 3763 1606 
L 4369 1453 
Q 4178 706 3683 314 
Q 3188 -78 2472 -78 
Q 1731 -78 1267 223 
Q 803 525 561 1097 
Q 319 1669 319 2325 
Q 319 3041 592 3573 
Q 866 4106 1370 4382 
Q 1875 4659 2481 4659 
Q 3169 4659 3637 4309 
Q 4106 3959 4291 3325 
L 3694 3184 
Q 3534 3684 3231 3912 
Q 2928 4141 2469 4141 
Q 1941 4141 1586 3887 
Q 1231 3634 1087 3207 
Q 944 2781 944 2328 
Q 944 1744 1114 1308 
Q 1284 872 1643 656 
Q 2003 441 2422 441 
Q 2931 441 3284 734 
Q 3638 1028 3763 1606 
z
" transform="scale(0.015625)"/>
       </defs>
       <use xlink:href="#ArialMT-44"/>
       <use xlink:href="#ArialMT-43" x="72.216797"/>
      </g>
     </g>
    </g>
    <g id="ytick_2">
     <g id="line2d_15">
      <path d="M 26.809375 766.811787 
L 705.599375 766.811787 
" clip-path="url(#p2df02c3877)" style="fill: none; stroke: #cccccc; stroke-width: 0.8; stroke-linecap: round"/>
     </g>
     <g id="line2d_16"/>
     <g id="text_9">
      <!-- IL -->
      <g style="fill: #262626" transform="translate(14.970313 770.390694) scale(0.1 -0.1)">
       <defs>
        <path id="ArialMT-4c" d="M 469 0 
L 469 4581 
L 1075 4581 
L 1075 541 
L 3331 541 
L 3331 0 
L 469 0 
z
" transform="scale(0.015625)"/>
       </defs>
       <use xlink:href="#ArialMT-49"/>
       <use xlink:href="#ArialMT-4c" x="27.783203"/>
      </g>
     </g>
    </g>
    <g id="ytick_3">
     <g id="line2d_17">
      <path d="M 26.809375 752.790921 
L 705.599375 752.790921 
" clip-path="url(#p2df02c3877)" style="fill: none; stroke: #cccccc; stroke-width: 0.8; stroke-linecap: round"/>
     </g>
     <g id="line2d_18"/>
     <g id="text_10">
      <!-- RI -->
      <g style="fill: #262626" transform="translate(13.309375 756.369828) scale(0.1 -0.1)">
       <defs>
        <path id="ArialMT-52" d="M 503 0 
L 503 4581 
L 2534 4581 
Q 3147 4581 3465 4457 
Q 3784 4334 3975 4021 
Q 4166 3709 4166 3331 
Q 4166 2844 3850 2509 
Q 3534 2175 2875 2084 
Q 3116 1969 3241 1856 
Q 3506 1613 3744 1247 
L 4541 0 
L 3778 0 
L 3172 953 
Q 2906 1366 2734 1584 
Q 2563 1803 2427 1890 
Q 2291 1978 2150 2013 
Q 2047 2034 1813 2034 
L 1109 2034 
L 1109 0 
L 503 0 
z
M 1109 2559 
L 2413 2559 
Q 2828 2559 3062 2645 
Q 3297 2731 3419 2920 
Q 3541 3109 3541 3331 
Q 3541 3656 3305 3865 
Q 3069 4075 2559 4075 
L 1109 4075 
L 1109 2559 
z
" transform="scale(0.015625)"/>
       </defs>
       <use xlink:href="#ArialMT-52"/>
       <use xlink:href="#ArialMT-49" x="72.216797"/>
      </g>
     </g>
    </g>
    <g id="ytick_4">
     <g id="line2d_19">
      <path d="M 26.809375 738.770055 
L 705.599375 738.770055 
" clip-path="url(#p2df02c3877)" style="fill: none; stroke: #cccccc; stroke-width: 0.8; stroke-linecap: round"/>
     </g>
     <g id="line2d_20"/>
     <g id="text_11">
      <!-- SD -->
      <g style="fill: #262626" transform="translate(9.417188 742.348961) scale(0.1 -0.1)">
       <use xlink:href="#ArialMT-53"/>
       <use xlink:href="#ArialMT-44" x="66.699219"/>
      </g>
     </g>
    </g>
    <g id="ytick_5">
     <g id="line2d_21">
      <path d="M 26.809375 724.749189 
L 705.599375 724.749189 
" clip-path="url(#p2df02c3877)" style="fill: none; stroke: #cccccc; stroke-width: 0.8; stroke-linecap: round"/>
     </g>
     <g id="line2d_22"/>
     <g id="text_12">
      <!-- NV -->
      <g style="fill: #262626" transform="translate(9.417188 728.328095) scale(0.1 -0.1)">
       <defs>
        <path id="ArialMT-4e" d="M 488 0 
L 488 4581 
L 1109 4581 
L 3516 984 
L 3516 4581 
L 4097 4581 
L 4097 0 
L 3475 0 
L 1069 3600 
L 1069 0 
L 488 0 
z
" transform="scale(0.015625)"/>
        <path id="ArialMT-56" d="M 1803 0 
L 28 4581 
L 684 4581 
L 1875 1253 
Q 2019 853 2116 503 
Q 2222 878 2363 1253 
L 3600 4581 
L 4219 4581 
L 2425 0 
L 1803 0 
z
" transform="scale(0.015625)"/>
       </defs>
       <use xlink:href="#ArialMT-4e"/>
       <use xlink:href="#ArialMT-56" x="72.216797"/>
      </g>
     </g>
    </g>
    <g id="ytick_6">
     <g id="line2d_23">
      <path d="M 26.809375 710.728323 
L 705.599375 710.728323 
" clip-path="url(#p2df02c3877)" style="fill: none; stroke: #cccccc; stroke-width: 0.8; stroke-linecap: round"/>
     </g>
     <g id="line2d_24"/>
     <g id="text_13">
      <!-- DE -->
      <g style="fill: #262626" transform="translate(9.417188 714.307229) scale(0.1 -0.1)">
       <defs>
        <path id="ArialMT-45" d="M 506 0 
L 506 4581 
L 3819 4581 
L 3819 4041 
L 1113 4041 
L 1113 2638 
L 3647 2638 
L 3647 2100 
L 1113 2100 
L 1113 541 
L 3925 541 
L 3925 0 
L 506 0 
z
" transform="scale(0.015625)"/>
       </defs>
       <use xlink:href="#ArialMT-44"/>
       <use xlink:href="#ArialMT-45" x="72.216797"/>
      </g>
     </g>
    </g>
    <g id="ytick_7">
     <g id="line2d_25">
      <path d="M 26.809375 696.707457 
L 705.599375 696.707457 
" clip-path="url(#p2df02c3877)" style="fill: none; stroke: #cccccc; stroke-width: 0.8; stroke-linecap: round"/>
     </g>
     <g id="line2d_26"/>
     <g id="text_14">
      <!-- FL -->
      <g style="fill: #262626" transform="translate(11.640625 700.286363) scale(0.1 -0.1)">
       <defs>
        <path id="ArialMT-46" d="M 525 0 
L 525 4581 
L 3616 4581 
L 3616 4041 
L 1131 4041 
L 1131 2622 
L 3281 2622 
L 3281 2081 
L 1131 2081 
L 1131 0 
L 525 0 
z
" transform="scale(0.015625)"/>
       </defs>
       <use xlink:href="#ArialMT-46"/>
       <use xlink:href="#ArialMT-4c" x="61.083984"/>
      </g>
     </g>
    </g>
    <g id="ytick_8">
     <g id="line2d_27">
      <path d="M 26.809375 682.686591 
L 705.599375 682.686591 
" clip-path="url(#p2df02c3877)" style="fill: none; stroke: #cccccc; stroke-width: 0.8; stroke-linecap: round"/>
     </g>
     <g id="line2d_28"/>
     <g id="text_15">
      <!-- AZ -->
      <g style="fill: #262626" transform="translate(10.53125 686.265497) scale(0.1 -0.1)">
       <defs>
        <path id="ArialMT-5a" d="M 128 0 
L 128 563 
L 2475 3497 
Q 2725 3809 2950 4041 
L 394 4041 
L 394 4581 
L 3675 4581 
L 3675 4041 
L 1103 863 
L 825 541 
L 3750 541 
L 3750 0 
L 128 0 
z
" transform="scale(0.015625)"/>
       </defs>
       <use xlink:href="#ArialMT-41"/>
       <use xlink:href="#ArialMT-5a" x="66.699219"/>
      </g>
     </g>
    </g>
    <g id="ytick_9">
     <g id="line2d_29">
      <path d="M 26.809375 668.665724 
L 705.599375 668.665724 
" clip-path="url(#p2df02c3877)" style="fill: none; stroke: #cccccc; stroke-width: 0.8; stroke-linecap: round"/>
     </g>
     <g id="line2d_30"/>
     <g id="text_16">
      <!-- NY -->
      <g style="fill: #262626" transform="translate(9.417188 672.244631) scale(0.1 -0.1)">
       <use xlink:href="#ArialMT-4e"/>
       <use xlink:href="#ArialMT-59" x="72.216797"/>
      </g>
     </g>
    </g>
    <g id="ytick_10">
     <g id="line2d_31">
      <path d="M 26.809375 654.644858 
L 705.599375 654.644858 
" clip-path="url(#p2df02c3877)" style="fill: none; stroke: #cccccc; stroke-width: 0.8; stroke-linecap: round"/>
     </g>
     <g id="line2d_32"/>
     <g id="text_17">
      <!-- CT -->
      <g style="fill: #262626" transform="translate(9.979688 658.223765) scale(0.1 -0.1)">
       <defs>
        <path id="ArialMT-54" d="M 1659 0 
L 1659 4041 
L 150 4041 
L 150 4581 
L 3781 4581 
L 3781 4041 
L 2266 4041 
L 2266 0 
L 1659 0 
z
" transform="scale(0.015625)"/>
       </defs>
       <use xlink:href="#ArialMT-43"/>
       <use xlink:href="#ArialMT-54" x="72.216797"/>
      </g>
     </g>
    </g>
    <g id="ytick_11">
     <g id="line2d_33">
      <path d="M 26.809375 640.623992 
L 705.599375 640.623992 
" clip-path="url(#p2df02c3877)" style="fill: none; stroke: #cccccc; stroke-width: 0.8; stroke-linecap: round"/>
     </g>
     <g id="line2d_34"/>
     <g id="text_18">
      <!-- NE -->
      <g style="fill: #262626" transform="translate(9.417188 644.202898) scale(0.1 -0.1)">
       <use xlink:href="#ArialMT-4e"/>
       <use xlink:href="#ArialMT-45" x="72.216797"/>
      </g>
     </g>
    </g>
    <g id="ytick_12">
     <g id="line2d_35">
      <path d="M 26.809375 626.603126 
L 705.599375 626.603126 
" clip-path="url(#p2df02c3877)" style="fill: none; stroke: #cccccc; stroke-width: 0.8; stroke-linecap: round"/>
     </g>
     <g id="line2d_36"/>
     <g id="text_19">
      <!-- MD -->
      <g style="fill: #262626" transform="translate(7.757813 630.182032) scale(0.1 -0.1)">
       <use xlink:href="#ArialMT-4d"/>
       <use xlink:href="#ArialMT-44" x="83.300781"/>
      </g>
     </g>
    </g>
    <g id="ytick_13">
     <g id="line2d_37">
      <path d="M 26.809375 612.58226 
L 705.599375 612.58226 
" clip-path="url(#p2df02c3877)" style="fill: none; stroke: #cccccc; stroke-width: 0.8; stroke-linecap: round"/>
     </g>
     <g id="line2d_38"/>
     <g id="text_20">
      <!-- MA -->
      <g style="fill: #262626" transform="translate(8.309375 616.161166) scale(0.1 -0.1)">
       <use xlink:href="#ArialMT-4d"/>
       <use xlink:href="#ArialMT-41" x="83.300781"/>
      </g>
     </g>
    </g>
    <g id="ytick_14">
     <g id="line2d_39">
      <path d="M 26.809375 598.561394 
L 705.599375 598.561394 
" clip-path="url(#p2df02c3877)" style="fill: none; stroke: #cccccc; stroke-width: 0.8; stroke-linecap: round"/>
     </g>
     <g id="line2d_40"/>
     <g id="text_21">
      <!-- ND -->
      <g style="fill: #262626" transform="translate(8.865625 602.1403) scale(0.1 -0.1)">
       <use xlink:href="#ArialMT-4e"/>
       <use xlink:href="#ArialMT-44" x="72.216797"/>
      </g>
     </g>
    </g>
    <g id="ytick_15">
     <g id="line2d_41">
      <path d="M 26.809375 584.540528 
L 705.599375 584.540528 
" clip-path="url(#p2df02c3877)" style="fill: none; stroke: #cccccc; stroke-width: 0.8; stroke-linecap: round"/>
     </g>
     <g id="line2d_42"/>
     <g id="text_22">
      <!-- IA -->
      <g style="fill: #262626" transform="translate(13.860938 588.119434) scale(0.1 -0.1)">
       <use xlink:href="#ArialMT-49"/>
       <use xlink:href="#ArialMT-41" x="27.783203"/>
      </g>
     </g>
    </g>
    <g id="ytick_16">
     <g id="line2d_43">
      <path d="M 26.809375 570.519661 
L 705.599375 570.519661 
" clip-path="url(#p2df02c3877)" style="fill: none; stroke: #cccccc; stroke-width: 0.8; stroke-linecap: round"/>
     </g>
     <g id="line2d_44"/>
     <g id="text_23">
      <!-- WI -->
      <g style="fill: #262626" transform="translate(11.092188 574.098568) scale(0.1 -0.1)">
       <defs>
        <path id="ArialMT-57" d="M 1294 0 
L 78 4581 
L 700 4581 
L 1397 1578 
Q 1509 1106 1591 641 
Q 1766 1375 1797 1488 
L 2669 4581 
L 3400 4581 
L 4056 2263 
Q 4303 1400 4413 641 
Q 4500 1075 4641 1638 
L 5359 4581 
L 5969 4581 
L 4713 0 
L 4128 0 
L 3163 3491 
Q 3041 3928 3019 4028 
Q 2947 3713 2884 3491 
L 1913 0 
L 1294 0 
z
" transform="scale(0.015625)"/>
       </defs>
       <use xlink:href="#ArialMT-57"/>
       <use xlink:href="#ArialMT-49" x="94.384766"/>
      </g>
     </g>
    </g>
    <g id="ytick_17">
     <g id="line2d_45">
      <path d="M 26.809375 556.498795 
L 705.599375 556.498795 
" clip-path="url(#p2df02c3877)" style="fill: none; stroke: #cccccc; stroke-width: 0.8; stroke-linecap: round"/>
     </g>
     <g id="line2d_46"/>
     <g id="text_24">
      <!-- MN -->
      <g style="fill: #262626" transform="translate(7.757813 560.077702) scale(0.1 -0.1)">
       <use xlink:href="#ArialMT-4d"/>
       <use xlink:href="#ArialMT-4e" x="83.300781"/>
      </g>
     </g>
    </g>
    <g id="ytick_18">
     <g id="line2d_47">
      <path d="M 26.809375 542.477929 
L 705.599375 542.477929 
" clip-path="url(#p2df02c3877)" style="fill: none; stroke: #cccccc; stroke-width: 0.8; stroke-linecap: round"/>
     </g>
     <g id="line2d_48"/>
     <g id="text_25">
      <!-- NJ -->
      <g style="fill: #262626" transform="translate(11.0875 546.056835) scale(0.1 -0.1)">
       <defs>
        <path id="ArialMT-4a" d="M 184 1300 
L 731 1375 
Q 753 850 928 656 
Q 1103 463 1413 463 
Q 1641 463 1806 567 
Q 1972 672 2034 851 
Q 2097 1031 2097 1425 
L 2097 4581 
L 2703 4581 
L 2703 1459 
Q 2703 884 2564 568 
Q 2425 253 2123 87 
Q 1822 -78 1416 -78 
Q 813 -78 492 269 
Q 172 616 184 1300 
z
" transform="scale(0.015625)"/>
       </defs>
       <use xlink:href="#ArialMT-4e"/>
       <use xlink:href="#ArialMT-4a" x="72.216797"/>
      </g>
     </g>
    </g>
    <g id="ytick_19">
     <g id="line2d_49">
      <path d="M 26.809375 528.457063 
L 705.599375 528.457063 
" clip-path="url(#p2df02c3877)" style="fill: none; stroke: #cccccc; stroke-width: 0.8; stroke-linecap: round"/>
     </g>
     <g id="line2d_50"/>
     <g id="text_26">
      <!-- KS -->
      <g style="fill: #262626" transform="translate(9.96875 532.035969) scale(0.1 -0.1)">
       <defs>
        <path id="ArialMT-4b" d="M 469 0 
L 469 4581 
L 1075 4581 
L 1075 2309 
L 3350 4581 
L 4172 4581 
L 2250 2725 
L 4256 0 
L 3456 0 
L 1825 2319 
L 1075 1588 
L 1075 0 
L 469 0 
z
" transform="scale(0.015625)"/>
       </defs>
       <use xlink:href="#ArialMT-4b"/>
       <use xlink:href="#ArialMT-53" x="66.699219"/>
      </g>
     </g>
    </g>
    <g id="ytick_20">
     <g id="line2d_51">
      <path d="M 26.809375 514.436197 
L 705.599375 514.436197 
" clip-path="url(#p2df02c3877)" style="fill: none; stroke: #cccccc; stroke-width: 0.8; stroke-linecap: round"/>
     </g>
     <g id="line2d_52"/>
     <g id="text_27">
      <!-- MO -->
      <g style="fill: #262626" transform="translate(7.201563 518.015103) scale(0.1 -0.1)">
       <defs>
        <path id="ArialMT-4f" d="M 309 2231 
Q 309 3372 921 4017 
Q 1534 4663 2503 4663 
Q 3138 4663 3647 4359 
Q 4156 4056 4423 3514 
Q 4691 2972 4691 2284 
Q 4691 1588 4409 1038 
Q 4128 488 3612 205 
Q 3097 -78 2500 -78 
Q 1853 -78 1343 234 
Q 834 547 571 1087 
Q 309 1628 309 2231 
z
M 934 2222 
Q 934 1394 1379 917 
Q 1825 441 2497 441 
Q 3181 441 3623 922 
Q 4066 1403 4066 2288 
Q 4066 2847 3877 3264 
Q 3688 3681 3323 3911 
Q 2959 4141 2506 4141 
Q 1863 4141 1398 3698 
Q 934 3256 934 2222 
z
" transform="scale(0.015625)"/>
       </defs>
       <use xlink:href="#ArialMT-4d"/>
       <use xlink:href="#ArialMT-4f" x="83.300781"/>
      </g>
     </g>
    </g>
    <g id="ytick_21">
     <g id="line2d_53">
      <path d="M 26.809375 500.415331 
L 705.599375 500.415331 
" clip-path="url(#p2df02c3877)" style="fill: none; stroke: #cccccc; stroke-width: 0.8; stroke-linecap: round"/>
     </g>
     <g id="line2d_54"/>
     <g id="text_28">
      <!-- UT -->
      <g style="fill: #262626" transform="translate(9.979688 503.994237) scale(0.1 -0.1)">
       <defs>
        <path id="ArialMT-55" d="M 3500 4581 
L 4106 4581 
L 4106 1934 
Q 4106 1244 3950 837 
Q 3794 431 3386 176 
Q 2978 -78 2316 -78 
Q 1672 -78 1262 144 
Q 853 366 678 786 
Q 503 1206 503 1934 
L 503 4581 
L 1109 4581 
L 1109 1938 
Q 1109 1341 1220 1058 
Q 1331 775 1601 622 
Q 1872 469 2263 469 
Q 2931 469 3215 772 
Q 3500 1075 3500 1938 
L 3500 4581 
z
" transform="scale(0.015625)"/>
       </defs>
       <use xlink:href="#ArialMT-55"/>
       <use xlink:href="#ArialMT-54" x="72.216797"/>
      </g>
     </g>
    </g>
    <g id="ytick_22">
     <g id="line2d_55">
      <path d="M 26.809375 486.394465 
L 705.599375 486.394465 
" clip-path="url(#p2df02c3877)" style="fill: none; stroke: #cccccc; stroke-width: 0.8; stroke-linecap: round"/>
     </g>
     <g id="line2d_56"/>
     <g id="text_29">
      <!-- WY -->
      <g style="fill: #262626" transform="translate(7.2 489.973371) scale(0.1 -0.1)">
       <use xlink:href="#ArialMT-57"/>
       <use xlink:href="#ArialMT-59" x="94.384766"/>
      </g>
     </g>
    </g>
    <g id="ytick_23">
     <g id="line2d_57">
      <path d="M 26.809375 472.373598 
L 705.599375 472.373598 
" clip-path="url(#p2df02c3877)" style="fill: none; stroke: #cccccc; stroke-width: 0.8; stroke-linecap: round"/>
     </g>
     <g id="line2d_58"/>
     <g id="text_30">
      <!-- AL -->
      <g style="fill: #262626" transform="translate(11.078125 475.952505) scale(0.1 -0.1)">
       <use xlink:href="#ArialMT-41"/>
       <use xlink:href="#ArialMT-4c" x="66.699219"/>
      </g>
     </g>
    </g>
    <g id="ytick_24">
     <g id="line2d_59">
      <path d="M 26.809375 458.352732 
L 705.599375 458.352732 
" clip-path="url(#p2df02c3877)" style="fill: none; stroke: #cccccc; stroke-width: 0.8; stroke-linecap: round"/>
     </g>
     <g id="line2d_60"/>
     <g id="text_31">
      <!-- SC -->
      <g style="fill: #262626" transform="translate(9.417188 461.931639) scale(0.1 -0.1)">
       <use xlink:href="#ArialMT-53"/>
       <use xlink:href="#ArialMT-43" x="66.699219"/>
      </g>
     </g>
    </g>
    <g id="ytick_25">
     <g id="line2d_61">
      <path d="M 26.809375 444.331866 
L 705.599375 444.331866 
" clip-path="url(#p2df02c3877)" style="fill: none; stroke: #cccccc; stroke-width: 0.8; stroke-linecap: round"/>
     </g>
     <g id="line2d_62"/>
     <g id="text_32">
      <!-- CO -->
      <g style="fill: #262626" transform="translate(8.309375 447.910772) scale(0.1 -0.1)">
       <use xlink:href="#ArialMT-43"/>
       <use xlink:href="#ArialMT-4f" x="72.216797"/>
      </g>
     </g>
    </g>
    <g id="ytick_26">
     <g id="line2d_63">
      <path d="M 26.809375 430.311 
L 705.599375 430.311 
" clip-path="url(#p2df02c3877)" style="fill: none; stroke: #cccccc; stroke-width: 0.8; stroke-linecap: round"/>
     </g>
     <g id="line2d_64"/>
     <g id="text_33">
      <!-- OK -->
      <g style="fill: #262626" transform="translate(8.860938 433.889906) scale(0.1 -0.1)">
       <use xlink:href="#ArialMT-4f"/>
       <use xlink:href="#ArialMT-4b" x="77.783203"/>
      </g>
     </g>
    </g>
    <g id="ytick_27">
     <g id="line2d_65">
      <path d="M 26.809375 416.290134 
L 705.599375 416.290134 
" clip-path="url(#p2df02c3877)" style="fill: none; stroke: #cccccc; stroke-width: 0.8; stroke-linecap: round"/>
     </g>
     <g id="line2d_66"/>
     <g id="text_34">
      <!-- IN -->
      <g style="fill: #262626" transform="translate(13.309375 419.86904) scale(0.1 -0.1)">
       <use xlink:href="#ArialMT-49"/>
       <use xlink:href="#ArialMT-4e" x="27.783203"/>
      </g>
     </g>
    </g>
    <g id="ytick_28">
     <g id="line2d_67">
      <path d="M 26.809375 402.269268 
L 705.599375 402.269268 
" clip-path="url(#p2df02c3877)" style="fill: none; stroke: #cccccc; stroke-width: 0.8; stroke-linecap: round"/>
     </g>
     <g id="line2d_68"/>
     <g id="text_35">
      <!-- TX -->
      <g style="fill: #262626" transform="translate(10.53125 405.848174) scale(0.1 -0.1)">
       <defs>
        <path id="ArialMT-58" d="M 28 0 
L 1800 2388 
L 238 4581 
L 959 4581 
L 1791 3406 
Q 2050 3041 2159 2844 
Q 2313 3094 2522 3366 
L 3444 4581 
L 4103 4581 
L 2494 2422 
L 4228 0 
L 3478 0 
L 2325 1634 
Q 2228 1775 2125 1941 
Q 1972 1691 1906 1597 
L 756 0 
L 28 0 
z
" transform="scale(0.015625)"/>
       </defs>
       <use xlink:href="#ArialMT-54"/>
       <use xlink:href="#ArialMT-58" x="61.083984"/>
      </g>
     </g>
    </g>
    <g id="ytick_29">
     <g id="line2d_69">
      <path d="M 26.809375 388.248402 
L 705.599375 388.248402 
" clip-path="url(#p2df02c3877)" style="fill: none; stroke: #cccccc; stroke-width: 0.8; stroke-linecap: round"/>
     </g>
     <g id="line2d_70"/>
     <g id="text_36">
      <!-- OR -->
      <g style="fill: #262626" transform="translate(8.309375 391.827308) scale(0.1 -0.1)">
       <use xlink:href="#ArialMT-4f"/>
       <use xlink:href="#ArialMT-52" x="77.783203"/>
      </g>
     </g>
    </g>
    <g id="ytick_30">
     <g id="line2d_71">
      <path d="M 26.809375 374.227535 
L 705.599375 374.227535 
" clip-path="url(#p2df02c3877)" style="fill: none; stroke: #cccccc; stroke-width: 0.8; stroke-linecap: round"/>
     </g>
     <g id="line2d_72"/>
     <g id="text_37">
      <!-- PA -->
      <g style="fill: #262626" transform="translate(10.70625 377.806442) scale(0.1 -0.1)">
       <defs>
        <path id="ArialMT-50" d="M 494 0 
L 494 4581 
L 2222 4581 
Q 2678 4581 2919 4538 
Q 3256 4481 3484 4323 
Q 3713 4166 3852 3881 
Q 3991 3597 3991 3256 
Q 3991 2672 3619 2267 
Q 3247 1863 2275 1863 
L 1100 1863 
L 1100 0 
L 494 0 
z
M 1100 2403 
L 2284 2403 
Q 2872 2403 3119 2622 
Q 3366 2841 3366 3238 
Q 3366 3525 3220 3729 
Q 3075 3934 2838 4000 
Q 2684 4041 2272 4041 
L 1100 4041 
L 1100 2403 
z
" transform="scale(0.015625)"/>
       </defs>
       <use xlink:href="#ArialMT-50"/>
       <use xlink:href="#ArialMT-41" x="59.324219"/>
      </g>
     </g>
    </g>
    <g id="ytick_31">
     <g id="line2d_73">
      <path d="M 26.809375 360.206669 
L 705.599375 360.206669 
" clip-path="url(#p2df02c3877)" style="fill: none; stroke: #cccccc; stroke-width: 0.8; stroke-linecap: round"/>
     </g>
     <g id="line2d_74"/>
     <g id="text_38">
      <!-- NH -->
      <g style="fill: #262626" transform="translate(8.865625 363.785576) scale(0.1 -0.1)">
       <defs>
        <path id="ArialMT-48" d="M 513 0 
L 513 4581 
L 1119 4581 
L 1119 2700 
L 3500 2700 
L 3500 4581 
L 4106 4581 
L 4106 0 
L 3500 0 
L 3500 2159 
L 1119 2159 
L 1119 0 
L 513 0 
z
" transform="scale(0.015625)"/>
       </defs>
       <use xlink:href="#ArialMT-4e"/>
       <use xlink:href="#ArialMT-48" x="72.216797"/>
      </g>
     </g>
    </g>
    <g id="ytick_32">
     <g id="line2d_75">
      <path d="M 26.809375 346.185803 
L 705.599375 346.185803 
" clip-path="url(#p2df02c3877)" style="fill: none; stroke: #cccccc; stroke-width: 0.8; stroke-linecap: round"/>
     </g>
     <g id="line2d_76"/>
     <g id="text_39">
      <!-- OH -->
      <g style="fill: #262626" transform="translate(8.309375 349.764709) scale(0.1 -0.1)">
       <use xlink:href="#ArialMT-4f"/>
       <use xlink:href="#ArialMT-48" x="77.783203"/>
      </g>
     </g>
    </g>
    <g id="ytick_33">
     <g id="line2d_77">
      <path d="M 26.809375 332.164937 
L 705.599375 332.164937 
" clip-path="url(#p2df02c3877)" style="fill: none; stroke: #cccccc; stroke-width: 0.8; stroke-linecap: round"/>
     </g>
     <g id="line2d_78"/>
     <g id="text_40">
      <!-- NC -->
      <g style="fill: #262626" transform="translate(8.865625 335.743843) scale(0.1 -0.1)">
       <use xlink:href="#ArialMT-4e"/>
       <use xlink:href="#ArialMT-43" x="72.216797"/>
      </g>
     </g>
    </g>
    <g id="ytick_34">
     <g id="line2d_79">
      <path d="M 26.809375 318.144071 
L 705.599375 318.144071 
" clip-path="url(#p2df02c3877)" style="fill: none; stroke: #cccccc; stroke-width: 0.8; stroke-linecap: round"/>
     </g>
     <g id="line2d_80"/>
     <g id="text_41">
      <!-- KY -->
      <g style="fill: #262626" transform="translate(9.96875 321.722977) scale(0.1 -0.1)">
       <use xlink:href="#ArialMT-4b"/>
       <use xlink:href="#ArialMT-59" x="66.699219"/>
      </g>
     </g>
    </g>
    <g id="ytick_35">
     <g id="line2d_81">
      <path d="M 26.809375 304.123205 
L 705.599375 304.123205 
" clip-path="url(#p2df02c3877)" style="fill: none; stroke: #cccccc; stroke-width: 0.8; stroke-linecap: round"/>
     </g>
     <g id="line2d_82"/>
     <g id="text_42">
      <!-- NM -->
      <g style="fill: #262626" transform="translate(7.757813 307.702111) scale(0.1 -0.1)">
       <use xlink:href="#ArialMT-4e"/>
       <use xlink:href="#ArialMT-4d" x="72.216797"/>
      </g>
     </g>
    </g>
    <g id="ytick_36">
     <g id="line2d_83">
      <path d="M 26.809375 290.102339 
L 705.599375 290.102339 
" clip-path="url(#p2df02c3877)" style="fill: none; stroke: #cccccc; stroke-width: 0.8; stroke-linecap: round"/>
     </g>
     <g id="line2d_84"/>
     <g id="text_43">
      <!-- MT -->
      <g style="fill: #262626" transform="translate(8.871875 293.681245) scale(0.1 -0.1)">
       <use xlink:href="#ArialMT-4d"/>
       <use xlink:href="#ArialMT-54" x="83.300781"/>
      </g>
     </g>
    </g>
    <g id="ytick_37">
     <g id="line2d_85">
      <path d="M 26.809375 276.081472 
L 705.599375 276.081472 
" clip-path="url(#p2df02c3877)" style="fill: none; stroke: #cccccc; stroke-width: 0.8; stroke-linecap: round"/>
     </g>
     <g id="line2d_86"/>
     <g id="text_44">
      <!-- CA -->
      <g style="fill: #262626" transform="translate(9.417188 279.660379) scale(0.1 -0.1)">
       <use xlink:href="#ArialMT-43"/>
       <use xlink:href="#ArialMT-41" x="72.216797"/>
      </g>
     </g>
    </g>
    <g id="ytick_38">
     <g id="line2d_87">
      <path d="M 26.809375 262.060606 
L 705.599375 262.060606 
" clip-path="url(#p2df02c3877)" style="fill: none; stroke: #cccccc; stroke-width: 0.8; stroke-linecap: round"/>
     </g>
     <g id="line2d_88"/>
     <g id="text_45">
      <!-- WA -->
      <g style="fill: #262626" transform="translate(7.575 265.639513) scale(0.1 -0.1)">
       <use xlink:href="#ArialMT-57"/>
       <use xlink:href="#ArialMT-41" x="90.634766"/>
      </g>
     </g>
    </g>
    <g id="ytick_39">
     <g id="line2d_89">
      <path d="M 26.809375 248.03974 
L 705.599375 248.03974 
" clip-path="url(#p2df02c3877)" style="fill: none; stroke: #cccccc; stroke-width: 0.8; stroke-linecap: round"/>
     </g>
     <g id="line2d_90"/>
     <g id="text_46">
      <!-- TN -->
      <g style="fill: #262626" transform="translate(9.979688 251.618646) scale(0.1 -0.1)">
       <use xlink:href="#ArialMT-54"/>
       <use xlink:href="#ArialMT-4e" x="61.083984"/>
      </g>
     </g>
    </g>
    <g id="ytick_40">
     <g id="line2d_91">
      <path d="M 26.809375 234.018874 
L 705.599375 234.018874 
" clip-path="url(#p2df02c3877)" style="fill: none; stroke: #cccccc; stroke-width: 0.8; stroke-linecap: round"/>
     </g>
     <g id="line2d_92"/>
     <g id="text_47">
      <!-- MI -->
      <g style="fill: #262626" transform="translate(12.201563 237.59778) scale(0.1 -0.1)">
       <use xlink:href="#ArialMT-4d"/>
       <use xlink:href="#ArialMT-49" x="83.300781"/>
      </g>
     </g>
    </g>
    <g id="ytick_41">
     <g id="line2d_93">
      <path d="M 26.809375 219.998008 
L 705.599375 219.998008 
" clip-path="url(#p2df02c3877)" style="fill: none; stroke: #cccccc; stroke-width: 0.8; stroke-linecap: round"/>
     </g>
     <g id="line2d_94"/>
     <g id="text_48">
      <!-- VA -->
      <g style="fill: #262626" transform="translate(10.70625 223.576914) scale(0.1 -0.1)">
       <use xlink:href="#ArialMT-56"/>
       <use xlink:href="#ArialMT-41" x="59.324219"/>
      </g>
     </g>
    </g>
    <g id="ytick_42">
     <g id="line2d_95">
      <path d="M 26.809375 205.977142 
L 705.599375 205.977142 
" clip-path="url(#p2df02c3877)" style="fill: none; stroke: #cccccc; stroke-width: 0.8; stroke-linecap: round"/>
     </g>
     <g id="line2d_96"/>
     <g id="text_49">
      <!-- ID -->
      <g style="fill: #262626" transform="translate(13.309375 209.556048) scale(0.1 -0.1)">
       <use xlink:href="#ArialMT-49"/>
       <use xlink:href="#ArialMT-44" x="27.783203"/>
      </g>
     </g>
    </g>
    <g id="ytick_43">
     <g id="line2d_97">
      <path d="M 26.809375 191.956276 
L 705.599375 191.956276 
" clip-path="url(#p2df02c3877)" style="fill: none; stroke: #cccccc; stroke-width: 0.8; stroke-linecap: round"/>
     </g>
     <g id="line2d_98"/>
     <g id="text_50">
      <!-- AK -->
      <g style="fill: #262626" transform="translate(9.96875 195.535182) scale(0.1 -0.1)">
       <use xlink:href="#ArialMT-41"/>
       <use xlink:href="#ArialMT-4b" x="66.699219"/>
      </g>
     </g>
    </g>
    <g id="ytick_44">
     <g id="line2d_99">
      <path d="M 26.809375 177.935409 
L 705.599375 177.935409 
" clip-path="url(#p2df02c3877)" style="fill: none; stroke: #cccccc; stroke-width: 0.8; stroke-linecap: round"/>
     </g>
     <g id="line2d_100"/>
     <g id="text_51">
      <!-- AR -->
      <g style="fill: #262626" transform="translate(9.417188 181.514316) scale(0.1 -0.1)">
       <use xlink:href="#ArialMT-41"/>
       <use xlink:href="#ArialMT-52" x="66.699219"/>
      </g>
     </g>
    </g>
    <g id="ytick_45">
     <g id="line2d_101">
      <path d="M 26.809375 163.914543 
L 705.599375 163.914543 
" clip-path="url(#p2df02c3877)" style="fill: none; stroke: #cccccc; stroke-width: 0.8; stroke-linecap: round"/>
     </g>
     <g id="line2d_102"/>
     <g id="text_52">
      <!-- LA -->
      <g style="fill: #262626" transform="translate(11.078125 167.49345) scale(0.1 -0.1)">
       <use xlink:href="#ArialMT-4c"/>
       <use xlink:href="#ArialMT-41" x="55.615234"/>
      </g>
     </g>
    </g>
    <g id="ytick_46">
     <g id="line2d_103">
      <path d="M 26.809375 149.893677 
L 705.599375 149.893677 
" clip-path="url(#p2df02c3877)" style="fill: none; stroke: #cccccc; stroke-width: 0.8; stroke-linecap: round"/>
     </g>
     <g id="line2d_104"/>
     <g id="text_53">
      <!-- GA -->
      <g style="fill: #262626" transform="translate(8.860938 153.472583) scale(0.1 -0.1)">
       <defs>
        <path id="ArialMT-47" d="M 2638 1797 
L 2638 2334 
L 4578 2338 
L 4578 638 
Q 4131 281 3656 101 
Q 3181 -78 2681 -78 
Q 2006 -78 1454 211 
Q 903 500 622 1047 
Q 341 1594 341 2269 
Q 341 2938 620 3517 
Q 900 4097 1425 4378 
Q 1950 4659 2634 4659 
Q 3131 4659 3532 4498 
Q 3934 4338 4162 4050 
Q 4391 3763 4509 3300 
L 3963 3150 
Q 3859 3500 3706 3700 
Q 3553 3900 3268 4020 
Q 2984 4141 2638 4141 
Q 2222 4141 1919 4014 
Q 1616 3888 1430 3681 
Q 1244 3475 1141 3228 
Q 966 2803 966 2306 
Q 966 1694 1177 1281 
Q 1388 869 1791 669 
Q 2194 469 2647 469 
Q 3041 469 3416 620 
Q 3791 772 3984 944 
L 3984 1797 
L 2638 1797 
z
" transform="scale(0.015625)"/>
       </defs>
       <use xlink:href="#ArialMT-47"/>
       <use xlink:href="#ArialMT-41" x="77.783203"/>
      </g>
     </g>
    </g>
    <g id="ytick_47">
     <g id="line2d_105">
      <path d="M 26.809375 135.872811 
L 705.599375 135.872811 
" clip-path="url(#p2df02c3877)" style="fill: none; stroke: #cccccc; stroke-width: 0.8; stroke-linecap: round"/>
     </g>
     <g id="line2d_106"/>
     <g id="text_54">
      <!-- HI -->
      <g style="fill: #262626" transform="translate(13.309375 139.451717) scale(0.1 -0.1)">
       <use xlink:href="#ArialMT-48"/>
       <use xlink:href="#ArialMT-49" x="72.216797"/>
      </g>
     </g>
    </g>
    <g id="ytick_48">
     <g id="line2d_107">
      <path d="M 26.809375 121.851945 
L 705.599375 121.851945 
" clip-path="url(#p2df02c3877)" style="fill: none; stroke: #cccccc; stroke-width: 0.8; stroke-linecap: round"/>
     </g>
     <g id="line2d_108"/>
     <g id="text_55">
      <!-- MS -->
      <g style="fill: #262626" transform="translate(8.309375 125.430851) scale(0.1 -0.1)">
       <use xlink:href="#ArialMT-4d"/>
       <use xlink:href="#ArialMT-53" x="83.300781"/>
      </g>
     </g>
    </g>
    <g id="ytick_49">
     <g id="line2d_109">
      <path d="M 26.809375 107.831079 
L 705.599375 107.831079 
" clip-path="url(#p2df02c3877)" style="fill: none; stroke: #cccccc; stroke-width: 0.8; stroke-linecap: round"/>
     </g>
     <g id="line2d_110"/>
     <g id="text_56">
      <!-- ME -->
      <g style="fill: #262626" transform="translate(8.309375 111.409985) scale(0.1 -0.1)">
       <use xlink:href="#ArialMT-4d"/>
       <use xlink:href="#ArialMT-45" x="83.300781"/>
      </g>
     </g>
    </g>
    <g id="ytick_50">
     <g id="line2d_111">
      <path d="M 26.809375 93.810213 
L 705.599375 93.810213 
" clip-path="url(#p2df02c3877)" style="fill: none; stroke: #cccccc; stroke-width: 0.8; stroke-linecap: round"/>
     </g>
     <g id="line2d_112"/>
     <g id="text_57">
      <!-- VT -->
      <g style="fill: #262626" transform="translate(10.53125 97.389119) scale(0.1 -0.1)">
       <use xlink:href="#ArialMT-56"/>
       <use xlink:href="#ArialMT-54" x="66.699219"/>
      </g>
     </g>
    </g>
    <g id="ytick_51">
     <g id="line2d_113">
      <path d="M 26.809375 79.789346 
L 705.599375 79.789346 
" clip-path="url(#p2df02c3877)" style="fill: none; stroke: #cccccc; stroke-width: 0.8; stroke-linecap: round"/>
     </g>
     <g id="line2d_114"/>
     <g id="text_58">
      <!-- WV -->
      <g style="fill: #262626" transform="translate(7.2 83.368253) scale(0.1 -0.1)">
       <use xlink:href="#ArialMT-57"/>
       <use xlink:href="#ArialMT-56" x="94.384766"/>
      </g>
     </g>
    </g>
   </g>
   <g id="patch_3">
    <path d="M 26.809375 786.441 
L 61.866652 786.441 
L 61.866652 775.224307 
L 26.809375 775.224307 
z
" clip-path="url(#p2df02c3877)" style="fill: #2ecc71; stroke: #ffffff; stroke-linejoin: miter"/>
   </g>
   <g id="patch_4">
    <path d="M 26.809375 772.420134 
L 105.776394 772.420134 
L 105.776394 761.203441 
L 26.809375 761.203441 
z
" clip-path="url(#p2df02c3877)" style="fill: #2ecc71; stroke: #ffffff; stroke-linejoin: miter"/>
   </g>
   <g id="patch_5">
    <path d="M 26.809375 758.399268 
L 107.647362 758.399268 
L 107.647362 747.182575 
L 26.809375 747.182575 
z
" clip-path="url(#p2df02c3877)" style="fill: #2ecc71; stroke: #ffffff; stroke-linejoin: miter"/>
   </g>
   <g id="patch_6">
    <path d="M 26.809375 744.378402 
L 109.385523 744.378402 
L 109.385523 733.161709 
L 26.809375 733.161709 
z
" clip-path="url(#p2df02c3877)" style="fill: #2ecc71; stroke: #ffffff; stroke-linejoin: miter"/>
   </g>
   <g id="patch_7">
    <path d="M 26.809375 730.357535 
L 111.711166 730.357535 
L 111.711166 719.140843 
L 26.809375 719.140843 
z
" clip-path="url(#p2df02c3877)" style="fill: #2ecc71; stroke: #ffffff; stroke-linejoin: miter"/>
   </g>
   <g id="patch_8">
    <path d="M 26.809375 716.336669 
L 114.498227 716.336669 
L 114.498227 705.119976 
L 26.809375 705.119976 
z
" clip-path="url(#p2df02c3877)" style="fill: #2ecc71; stroke: #ffffff; stroke-linejoin: miter"/>
   </g>
   <g id="patch_9">
    <path d="M 26.809375 702.315803 
L 115.113525 702.315803 
L 115.113525 691.09911 
L 26.809375 691.09911 
z
" clip-path="url(#p2df02c3877)" style="fill: #2ecc71; stroke: #ffffff; stroke-linejoin: miter"/>
   </g>
   <g id="patch_10">
    <path d="M 26.809375 688.294937 
L 122.522306 688.294937 
L 122.522306 677.078244 
L 26.809375 677.078244 
z
" clip-path="url(#p2df02c3877)" style="fill: #2ecc71; stroke: #ffffff; stroke-linejoin: miter"/>
   </g>
   <g id="patch_11">
    <path d="M 26.809375 674.274071 
L 122.54765 674.274071 
L 122.54765 663.057378 
L 26.809375 663.057378 
z
" clip-path="url(#p2df02c3877)" style="fill: #2ecc71; stroke: #ffffff; stroke-linejoin: miter"/>
   </g>
   <g id="patch_12">
    <path d="M 26.809375 660.253205 
L 123.996468 660.253205 
L 123.996468 649.036512 
L 26.809375 649.036512 
z
" clip-path="url(#p2df02c3877)" style="fill: #2ecc71; stroke: #ffffff; stroke-linejoin: miter"/>
   </g>
   <g id="patch_13">
    <path d="M 26.809375 646.232339 
L 124.710368 646.232339 
L 124.710368 635.015646 
L 26.809375 635.015646 
z
" clip-path="url(#p2df02c3877)" style="fill: #2ecc71; stroke: #ffffff; stroke-linejoin: miter"/>
   </g>
   <g id="patch_14">
    <path d="M 26.809375 632.211472 
L 126.718978 632.211472 
L 126.718978 620.99478 
L 26.809375 620.99478 
z
" clip-path="url(#p2df02c3877)" style="fill: #2ecc71; stroke: #ffffff; stroke-linejoin: miter"/>
   </g>
   <g id="patch_15">
    <path d="M 26.809375 618.190606 
L 127.943365 618.190606 
L 127.943365 606.973913 
L 26.809375 606.973913 
z
" clip-path="url(#p2df02c3877)" style="fill: #2ecc71; stroke: #ffffff; stroke-linejoin: miter"/>
   </g>
   <g id="patch_16">
    <path d="M 26.809375 604.16974 
L 138.83667 604.16974 
L 138.83667 592.953047 
L 26.809375 592.953047 
z
" clip-path="url(#p2df02c3877)" style="fill: #2ecc71; stroke: #ffffff; stroke-linejoin: miter"/>
   </g>
   <g id="patch_17">
    <path d="M 26.809375 590.148874 
L 146.221398 590.148874 
L 146.221398 578.932181 
L 26.809375 578.932181 
z
" clip-path="url(#p2df02c3877)" style="fill: #2ecc71; stroke: #ffffff; stroke-linejoin: miter"/>
   </g>
   <g id="patch_18">
    <path d="M 26.809375 576.128008 
L 148.260036 576.128008 
L 148.260036 564.911315 
L 26.809375 564.911315 
z
" clip-path="url(#p2df02c3877)" style="fill: #2ecc71; stroke: #ffffff; stroke-linejoin: miter"/>
   </g>
   <g id="patch_19">
    <path d="M 26.809375 562.107142 
L 149.387887 562.107142 
L 149.387887 550.890449 
L 26.809375 550.890449 
z
" clip-path="url(#p2df02c3877)" style="fill: #2ecc71; stroke: #ffffff; stroke-linejoin: miter"/>
   </g>
   <g id="patch_20">
    <path d="M 26.809375 548.086276 
L 159.402123 548.086276 
L 159.402123 536.869583 
L 26.809375 536.869583 
z
" clip-path="url(#p2df02c3877)" style="fill: #2ecc71; stroke: #ffffff; stroke-linejoin: miter"/>
   </g>
   <g id="patch_21">
    <path d="M 26.809375 534.065409 
L 164.633221 534.065409 
L 164.633221 522.848717 
L 26.809375 522.848717 
z
" clip-path="url(#p2df02c3877)" style="fill: #f39c12; stroke: #ffffff; stroke-linejoin: miter"/>
   </g>
   <g id="patch_22">
    <path d="M 26.809375 520.044543 
L 167.733423 520.044543 
L 167.733423 508.82785 
L 26.809375 508.82785 
z
" clip-path="url(#p2df02c3877)" style="fill: #f39c12; stroke: #ffffff; stroke-linejoin: miter"/>
   </g>
   <g id="patch_23">
    <path d="M 26.809375 506.023677 
L 168.717592 506.023677 
L 168.717592 494.806984 
L 26.809375 494.806984 
z
" clip-path="url(#p2df02c3877)" style="fill: #f39c12; stroke: #ffffff; stroke-linejoin: miter"/>
   </g>
   <g id="patch_24">
    <path d="M 26.809375 492.002811 
L 171.878794 492.002811 
L 171.878794 480.786118 
L 26.809375 480.786118 
z
" clip-path="url(#p2df02c3877)" style="fill: #f39c12; stroke: #ffffff; stroke-linejoin: miter"/>
   </g>
   <g id="patch_25">
    <path d="M 26.809375 477.981945 
L 183.437166 477.981945 
L 183.437166 466.765252 
L 26.809375 466.765252 
z
" clip-path="url(#p2df02c3877)" style="fill: #f39c12; stroke: #ffffff; stroke-linejoin: miter"/>
   </g>
   <g id="patch_26">
    <path d="M 26.809375 463.961079 
L 183.461302 463.961079 
L 183.461302 452.744386 
L 26.809375 452.744386 
z
" clip-path="url(#p2df02c3877)" style="fill: #f39c12; stroke: #ffffff; stroke-linejoin: miter"/>
   </g>
   <g id="patch_27">
    <path d="M 26.809375 449.940213 
L 185.103154 449.940213 
L 185.103154 438.72352 
L 26.809375 438.72352 
z
" clip-path="url(#p2df02c3877)" style="fill: #f39c12; stroke: #ffffff; stroke-linejoin: miter"/>
   </g>
   <g id="patch_28">
    <path d="M 26.809375 435.919346 
L 185.79575 435.919346 
L 185.79575 424.702654 
L 26.809375 424.702654 
z
" clip-path="url(#p2df02c3877)" style="fill: #f39c12; stroke: #ffffff; stroke-linejoin: miter"/>
   </g>
   <g id="patch_29">
    <path d="M 26.809375 421.89848 
L 188.28441 421.89848 
L 188.28441 410.681787 
L 26.809375 410.681787 
z
" clip-path="url(#p2df02c3877)" style="fill: #f39c12; stroke: #ffffff; stroke-linejoin: miter"/>
   </g>
   <g id="patch_30">
    <path d="M 26.809375 407.877614 
L 198.904156 407.877614 
L 198.904156 396.660921 
L 26.809375 396.660921 
z
" clip-path="url(#p2df02c3877)" style="fill: #f39c12; stroke: #ffffff; stroke-linejoin: miter"/>
   </g>
   <g id="patch_31">
    <path d="M 26.809375 393.856748 
L 200.890222 393.856748 
L 200.890222 382.640055 
L 26.809375 382.640055 
z
" clip-path="url(#p2df02c3877)" style="fill: #f39c12; stroke: #ffffff; stroke-linejoin: miter"/>
   </g>
   <g id="patch_32">
    <path d="M 26.809375 379.835882 
L 200.975041 379.835882 
L 200.975041 368.619189 
L 26.809375 368.619189 
z
" clip-path="url(#p2df02c3877)" style="fill: #f39c12; stroke: #ffffff; stroke-linejoin: miter"/>
   </g>
   <g id="patch_33">
    <path d="M 26.809375 365.815016 
L 202.730625 365.815016 
L 202.730625 354.598323 
L 26.809375 354.598323 
z
" clip-path="url(#p2df02c3877)" style="fill: #f39c12; stroke: #ffffff; stroke-linejoin: miter"/>
   </g>
   <g id="patch_34">
    <path d="M 26.809375 351.79415 
L 203.982098 351.79415 
L 203.982098 340.577457 
L 26.809375 340.577457 
z
" clip-path="url(#p2df02c3877)" style="fill: #f39c12; stroke: #ffffff; stroke-linejoin: miter"/>
   </g>
   <g id="patch_35">
    <path d="M 26.809375 337.773283 
L 214.790881 337.773283 
L 214.790881 326.556591 
L 26.809375 326.556591 
z
" clip-path="url(#p2df02c3877)" style="fill: #f39c12; stroke: #ffffff; stroke-linejoin: miter"/>
   </g>
   <g id="patch_36">
    <path d="M 26.809375 323.752417 
L 230.674474 323.752417 
L 230.674474 312.535724 
L 26.809375 312.535724 
z
" clip-path="url(#p2df02c3877)" style="fill: #f39c12; stroke: #ffffff; stroke-linejoin: miter"/>
   </g>
   <g id="patch_37">
    <path d="M 26.809375 309.731551 
L 234.885966 309.731551 
L 234.885966 298.514858 
L 26.809375 298.514858 
z
" clip-path="url(#p2df02c3877)" style="fill: #f39c12; stroke: #ffffff; stroke-linejoin: miter"/>
   </g>
   <g id="patch_38">
    <path d="M 26.809375 295.710685 
L 235.049887 295.710685 
L 235.049887 284.493992 
L 26.809375 284.493992 
z
" clip-path="url(#p2df02c3877)" style="fill: #f39c12; stroke: #ffffff; stroke-linejoin: miter"/>
   </g>
   <g id="patch_39">
    <path d="M 26.809375 281.689819 
L 237.176247 281.689819 
L 237.176247 270.473126 
L 26.809375 270.473126 
z
" clip-path="url(#p2df02c3877)" style="fill: #f39c12; stroke: #ffffff; stroke-linejoin: miter"/>
   </g>
   <g id="patch_40">
    <path d="M 26.809375 267.668953 
L 237.720505 267.668953 
L 237.720505 256.45226 
L 26.809375 256.45226 
z
" clip-path="url(#p2df02c3877)" style="fill: #f39c12; stroke: #ffffff; stroke-linejoin: miter"/>
   </g>
   <g id="patch_41">
    <path d="M 26.809375 253.648087 
L 238.905365 253.648087 
L 238.905365 242.431394 
L 26.809375 242.431394 
z
" clip-path="url(#p2df02c3877)" style="fill: #f39c12; stroke: #ffffff; stroke-linejoin: miter"/>
   </g>
   <g id="patch_42">
    <path d="M 26.809375 239.62722 
L 239.699961 239.62722 
L 239.699961 228.410528 
L 26.809375 228.410528 
z
" clip-path="url(#p2df02c3877)" style="fill: #f39c12; stroke: #ffffff; stroke-linejoin: miter"/>
   </g>
   <g id="patch_43">
    <path d="M 26.809375 225.606354 
L 248.102773 225.606354 
L 248.102773 214.389661 
L 26.809375 214.389661 
z
" clip-path="url(#p2df02c3877)" style="fill: #f39c12; stroke: #ffffff; stroke-linejoin: miter"/>
   </g>
   <g id="patch_44">
    <path d="M 26.809375 211.585488 
L 258.225911 211.585488 
L 258.225911 200.368795 
L 26.809375 200.368795 
z
" clip-path="url(#p2df02c3877)" style="fill: #f39c12; stroke: #ffffff; stroke-linejoin: miter"/>
   </g>
   <g id="patch_45">
    <path d="M 26.809375 197.564622 
L 282.649192 197.564622 
L 282.649192 186.347929 
L 26.809375 186.347929 
z
" clip-path="url(#p2df02c3877)" style="fill: #f39c12; stroke: #ffffff; stroke-linejoin: miter"/>
   </g>
   <g id="patch_46">
    <path d="M 26.809375 183.543756 
L 285.619373 183.543756 
L 285.619373 172.327063 
L 26.809375 172.327063 
z
" clip-path="url(#p2df02c3877)" style="fill: #f39c12; stroke: #ffffff; stroke-linejoin: miter"/>
   </g>
   <g id="patch_47">
    <path d="M 26.809375 169.52289 
L 300.713682 169.52289 
L 300.713682 158.306197 
L 26.809375 158.306197 
z
" clip-path="url(#p2df02c3877)" style="fill: #e74c3c; stroke: #ffffff; stroke-linejoin: miter"/>
   </g>
   <g id="patch_48">
    <path d="M 26.809375 155.502024 
L 309.10526 155.502024 
L 309.10526 144.285331 
L 26.809375 144.285331 
z
" clip-path="url(#p2df02c3877)" style="fill: #e74c3c; stroke: #ffffff; stroke-linejoin: miter"/>
   </g>
   <g id="patch_49">
    <path d="M 26.809375 141.481157 
L 326.751422 141.481157 
L 326.751422 130.264465 
L 26.809375 130.264465 
z
" clip-path="url(#p2df02c3877)" style="fill: #e74c3c; stroke: #ffffff; stroke-linejoin: miter"/>
   </g>
   <g id="patch_50">
    <path d="M 26.809375 127.460291 
L 380.92249 127.460291 
L 380.92249 116.243598 
L 26.809375 116.243598 
z
" clip-path="url(#p2df02c3877)" style="fill: #e74c3c; stroke: #ffffff; stroke-linejoin: miter"/>
   </g>
   <g id="patch_51">
    <path d="M 26.809375 113.439425 
L 391.218578 113.439425 
L 391.218578 102.222732 
L 26.809375 102.222732 
z
" clip-path="url(#p2df02c3877)" style="fill: #e74c3c; stroke: #ffffff; stroke-linejoin: miter"/>
   </g>
   <g id="patch_52">
    <path d="M 26.809375 99.418559 
L 392.508094 99.418559 
L 392.508094 88.201866 
L 26.809375 88.201866 
z
" clip-path="url(#p2df02c3877)" style="fill: #e74c3c; stroke: #ffffff; stroke-linejoin: miter"/>
   </g>
   <g id="patch_53">
    <path d="M 26.809375 85.397693 
L 673.276042 85.397693 
L 673.276042 74.181 
L 26.809375 74.181 
z
" clip-path="url(#p2df02c3877)" style="fill: #e74c3c; stroke: #ffffff; stroke-linejoin: miter"/>
   </g>
   <g id="line2d_115">
    <path d="M 159.788462 822.054 
L 159.788462 38.568 
" clip-path="url(#p2df02c3877)" style="fill: none; stroke-dasharray: 5.55,2.4; stroke-dashoffset: 0; stroke: #808080; stroke-opacity: 0.5; stroke-width: 1.5"/>
   </g>
   <g id="line2d_116">
    <path d="M 292.76755 822.054 
L 292.76755 38.568 
" clip-path="url(#p2df02c3877)" style="fill: none; stroke-dasharray: 5.55,2.4; stroke-dashoffset: 0; stroke: #808080; stroke-opacity: 0.5; stroke-width: 1.5"/>
   </g>
   <g id="patch_54">
    <path d="M 26.809375 822.054 
L 26.809375 38.568 
" style="fill: none; stroke: #cccccc; stroke-linejoin: miter; stroke-linecap: square"/>
   </g>
   <g id="patch_55">
    <path d="M 705.599375 822.054 
L 705.599375 38.568 
" style="fill: none; stroke: #cccccc; stroke-linejoin: miter; stroke-linecap: square"/>
   </g>
   <g id="patch_56">
    <path d="M 26.809375 822.054 
L 705.599375 822.054 
" style="fill: none; stroke: #cccccc; stroke-linejoin: miter; stroke-linecap: square"/>
   </g>
   <g id="patch_57">
    <path d="M 26.809375 38.568 
L 705.599375 38.568 
" style="fill: none; stroke: #cccccc; stroke-linejoin: miter; stroke-linecap: square"/>
   </g>
   <g id="text_59">
    <!-- Grid Reliability by State (2024) -->
    <g style="fill: #262626" transform="translate(265.456875 17.391562) scale(0.14 -0.14)">
     <defs>
      <path id="Arial-BoldMT-47" d="M 2597 1684 
L 2597 2456 
L 4591 2456 
L 4591 631 
Q 4300 350 3748 136 
Q 3197 -78 2631 -78 
Q 1913 -78 1378 223 
Q 844 525 575 1086 
Q 306 1647 306 2306 
Q 306 3022 606 3578 
Q 906 4134 1484 4431 
Q 1925 4659 2581 4659 
Q 3434 4659 3914 4301 
Q 4394 3944 4531 3313 
L 3613 3141 
Q 3516 3478 3248 3673 
Q 2981 3869 2581 3869 
Q 1975 3869 1617 3484 
Q 1259 3100 1259 2344 
Q 1259 1528 1621 1120 
Q 1984 713 2572 713 
Q 2863 713 3155 827 
Q 3447 941 3656 1103 
L 3656 1684 
L 2597 1684 
z
" transform="scale(0.015625)"/>
      <path id="Arial-BoldMT-72" d="M 1300 0 
L 422 0 
L 422 3319 
L 1238 3319 
L 1238 2847 
Q 1447 3181 1614 3287 
Q 1781 3394 1994 3394 
Q 2294 3394 2572 3228 
L 2300 2463 
Q 2078 2606 1888 2606 
Q 1703 2606 1575 2504 
Q 1447 2403 1373 2137 
Q 1300 1872 1300 1025 
L 1300 0 
z
" transform="scale(0.015625)"/>
      <path id="Arial-BoldMT-69" d="M 459 3769 
L 459 4581 
L 1338 4581 
L 1338 3769 
L 459 3769 
z
M 459 0 
L 459 3319 
L 1338 3319 
L 1338 0 
L 459 0 
z
" transform="scale(0.015625)"/>
      <path id="Arial-BoldMT-64" d="M 3503 0 
L 2688 0 
L 2688 488 
Q 2484 203 2207 64 
Q 1931 -75 1650 -75 
Q 1078 -75 670 386 
Q 263 847 263 1672 
Q 263 2516 659 2955 
Q 1056 3394 1663 3394 
Q 2219 3394 2625 2931 
L 2625 4581 
L 3503 4581 
L 3503 0 
z
M 1159 1731 
Q 1159 1200 1306 963 
Q 1519 619 1900 619 
Q 2203 619 2415 876 
Q 2628 1134 2628 1647 
Q 2628 2219 2422 2470 
Q 2216 2722 1894 2722 
Q 1581 2722 1370 2473 
Q 1159 2225 1159 1731 
z
" transform="scale(0.015625)"/>
      <path id="Arial-BoldMT-20" transform="scale(0.015625)"/>
      <path id="Arial-BoldMT-52" d="M 469 0 
L 469 4581 
L 2416 4581 
Q 3150 4581 3483 4457 
Q 3816 4334 4016 4018 
Q 4216 3703 4216 3297 
Q 4216 2781 3912 2445 
Q 3609 2109 3006 2022 
Q 3306 1847 3501 1637 
Q 3697 1428 4028 894 
L 4588 0 
L 3481 0 
L 2813 997 
Q 2456 1531 2325 1670 
Q 2194 1809 2047 1861 
Q 1900 1913 1581 1913 
L 1394 1913 
L 1394 0 
L 469 0 
z
M 1394 2644 
L 2078 2644 
Q 2744 2644 2909 2700 
Q 3075 2756 3169 2893 
Q 3263 3031 3263 3238 
Q 3263 3469 3139 3611 
Q 3016 3753 2791 3791 
Q 2678 3806 2116 3806 
L 1394 3806 
L 1394 2644 
z
" transform="scale(0.015625)"/>
      <path id="Arial-BoldMT-65" d="M 2381 1056 
L 3256 909 
Q 3088 428 2723 176 
Q 2359 -75 1813 -75 
Q 947 -75 531 491 
Q 203 944 203 1634 
Q 203 2459 634 2926 
Q 1066 3394 1725 3394 
Q 2466 3394 2894 2905 
Q 3322 2416 3303 1406 
L 1103 1406 
Q 1113 1016 1316 798 
Q 1519 581 1822 581 
Q 2028 581 2168 693 
Q 2309 806 2381 1056 
z
M 2431 1944 
Q 2422 2325 2234 2523 
Q 2047 2722 1778 2722 
Q 1491 2722 1303 2513 
Q 1116 2303 1119 1944 
L 2431 1944 
z
" transform="scale(0.015625)"/>
      <path id="Arial-BoldMT-6c" d="M 459 0 
L 459 4581 
L 1338 4581 
L 1338 0 
L 459 0 
z
" transform="scale(0.015625)"/>
      <path id="Arial-BoldMT-61" d="M 1116 2306 
L 319 2450 
Q 453 2931 781 3162 
Q 1109 3394 1756 3394 
Q 2344 3394 2631 3255 
Q 2919 3116 3036 2902 
Q 3153 2688 3153 2116 
L 3144 1091 
Q 3144 653 3186 445 
Q 3228 238 3344 0 
L 2475 0 
Q 2441 88 2391 259 
Q 2369 338 2359 363 
Q 2134 144 1878 34 
Q 1622 -75 1331 -75 
Q 819 -75 523 203 
Q 228 481 228 906 
Q 228 1188 362 1408 
Q 497 1628 739 1745 
Q 981 1863 1438 1950 
Q 2053 2066 2291 2166 
L 2291 2253 
Q 2291 2506 2166 2614 
Q 2041 2722 1694 2722 
Q 1459 2722 1328 2630 
Q 1197 2538 1116 2306 
z
M 2291 1594 
Q 2122 1538 1756 1459 
Q 1391 1381 1278 1306 
Q 1106 1184 1106 997 
Q 1106 813 1243 678 
Q 1381 544 1594 544 
Q 1831 544 2047 700 
Q 2206 819 2256 991 
Q 2291 1103 2291 1419 
L 2291 1594 
z
" transform="scale(0.015625)"/>
      <path id="Arial-BoldMT-62" d="M 422 0 
L 422 4581 
L 1300 4581 
L 1300 2931 
Q 1706 3394 2263 3394 
Q 2869 3394 3266 2955 
Q 3663 2516 3663 1694 
Q 3663 844 3258 384 
Q 2853 -75 2275 -75 
Q 1991 -75 1714 67 
Q 1438 209 1238 488 
L 1238 0 
L 422 0 
z
M 1294 1731 
Q 1294 1216 1456 969 
Q 1684 619 2063 619 
Q 2353 619 2558 867 
Q 2763 1116 2763 1650 
Q 2763 2219 2556 2470 
Q 2350 2722 2028 2722 
Q 1713 2722 1503 2476 
Q 1294 2231 1294 1731 
z
" transform="scale(0.015625)"/>
      <path id="Arial-BoldMT-74" d="M 1981 3319 
L 1981 2619 
L 1381 2619 
L 1381 1281 
Q 1381 875 1398 808 
Q 1416 741 1477 697 
Q 1538 653 1625 653 
Q 1747 653 1978 738 
L 2053 56 
Q 1747 -75 1359 -75 
Q 1122 -75 931 4 
Q 741 84 652 211 
Q 563 338 528 553 
Q 500 706 500 1172 
L 500 2619 
L 97 2619 
L 97 3319 
L 500 3319 
L 500 3978 
L 1381 4491 
L 1381 3319 
L 1981 3319 
z
" transform="scale(0.015625)"/>
      <path id="Arial-BoldMT-79" d="M 44 3319 
L 978 3319 
L 1772 963 
L 2547 3319 
L 3456 3319 
L 2284 125 
L 2075 -453 
Q 1959 -744 1854 -897 
Q 1750 -1050 1614 -1145 
Q 1478 -1241 1279 -1294 
Q 1081 -1347 831 -1347 
Q 578 -1347 334 -1294 
L 256 -606 
Q 463 -647 628 -647 
Q 934 -647 1081 -467 
Q 1228 -288 1306 -9 
L 44 3319 
z
" transform="scale(0.015625)"/>
      <path id="Arial-BoldMT-53" d="M 231 1491 
L 1131 1578 
Q 1213 1125 1461 912 
Q 1709 700 2131 700 
Q 2578 700 2804 889 
Q 3031 1078 3031 1331 
Q 3031 1494 2936 1608 
Q 2841 1722 2603 1806 
Q 2441 1863 1863 2006 
Q 1119 2191 819 2459 
Q 397 2838 397 3381 
Q 397 3731 595 4036 
Q 794 4341 1167 4500 
Q 1541 4659 2069 4659 
Q 2931 4659 3367 4281 
Q 3803 3903 3825 3272 
L 2900 3231 
Q 2841 3584 2645 3739 
Q 2450 3894 2059 3894 
Q 1656 3894 1428 3728 
Q 1281 3622 1281 3444 
Q 1281 3281 1419 3166 
Q 1594 3019 2269 2859 
Q 2944 2700 3267 2529 
Q 3591 2359 3773 2064 
Q 3956 1769 3956 1334 
Q 3956 941 3737 597 
Q 3519 253 3119 86 
Q 2719 -81 2122 -81 
Q 1253 -81 787 320 
Q 322 722 231 1491 
z
" transform="scale(0.015625)"/>
      <path id="Arial-BoldMT-28" d="M 1916 -1347 
L 1313 -1347 
Q 834 -625 584 153 
Q 334 931 334 1659 
Q 334 2563 644 3369 
Q 913 4069 1325 4659 
L 1925 4659 
Q 1497 3713 1336 3048 
Q 1175 2384 1175 1641 
Q 1175 1128 1270 590 
Q 1366 53 1531 -431 
Q 1641 -750 1916 -1347 
z
" transform="scale(0.015625)"/>
      <path id="Arial-BoldMT-32" d="M 3238 816 
L 3238 0 
L 159 0 
Q 209 463 459 877 
Q 709 1291 1447 1975 
Q 2041 2528 2175 2725 
Q 2356 2997 2356 3263 
Q 2356 3556 2198 3714 
Q 2041 3872 1763 3872 
Q 1488 3872 1325 3706 
Q 1163 3541 1138 3156 
L 263 3244 
Q 341 3969 753 4284 
Q 1166 4600 1784 4600 
Q 2463 4600 2850 4234 
Q 3238 3869 3238 3325 
Q 3238 3016 3127 2736 
Q 3016 2456 2775 2150 
Q 2616 1947 2200 1565 
Q 1784 1184 1673 1059 
Q 1563 934 1494 816 
L 3238 816 
z
" transform="scale(0.015625)"/>
      <path id="Arial-BoldMT-30" d="M 1756 4600 
Q 2422 4600 2797 4125 
Q 3244 3563 3244 2259 
Q 3244 959 2794 391 
Q 2422 -78 1756 -78 
Q 1088 -78 678 436 
Q 269 950 269 2269 
Q 269 3563 719 4131 
Q 1091 4600 1756 4600 
z
M 1756 3872 
Q 1597 3872 1472 3770 
Q 1347 3669 1278 3406 
Q 1188 3066 1188 2259 
Q 1188 1453 1269 1151 
Q 1350 850 1473 750 
Q 1597 650 1756 650 
Q 1916 650 2041 751 
Q 2166 853 2234 1116 
Q 2325 1453 2325 2259 
Q 2325 3066 2244 3367 
Q 2163 3669 2039 3770 
Q 1916 3872 1756 3872 
z
" transform="scale(0.015625)"/>
      <path id="Arial-BoldMT-34" d="M 1994 0 
L 1994 922 
L 119 922 
L 119 1691 
L 2106 4600 
L 2844 4600 
L 2844 1694 
L 3413 1694 
L 3413 922 
L 2844 922 
L 2844 0 
L 1994 0 
z
M 1994 1694 
L 1994 3259 
L 941 1694 
L 1994 1694 
z
" transform="scale(0.015625)"/>
      <path id="Arial-BoldMT-29" d="M 216 -1347 
Q 475 -791 581 -494 
Q 688 -197 778 190 
Q 869 578 912 926 
Q 956 1275 956 1641 
Q 956 2384 797 3048 
Q 638 3713 209 4659 
L 806 4659 
Q 1278 3988 1539 3234 
Q 1800 2481 1800 1706 
Q 1800 1053 1594 306 
Q 1359 -531 822 -1347 
L 216 -1347 
z
" transform="scale(0.015625)"/>
     </defs>
     <use xlink:href="#Arial-BoldMT-47"/>
     <use xlink:href="#Arial-BoldMT-72" x="77.783203"/>
     <use xlink:href="#Arial-BoldMT-69" x="116.699219"/>
     <use xlink:href="#Arial-BoldMT-64" x="144.482422"/>
     <use xlink:href="#Arial-BoldMT-20" x="205.566406"/>
     <use xlink:href="#Arial-BoldMT-52" x="233.349609"/>
     <use xlink:href="#Arial-BoldMT-65" x="305.566406"/>
     <use xlink:href="#Arial-BoldMT-6c" x="361.181641"/>
     <use xlink:href="#Arial-BoldMT-69" x="388.964844"/>
     <use xlink:href="#Arial-BoldMT-61" x="416.748047"/>
     <use xlink:href="#Arial-BoldMT-62" x="472.363281"/>
     <use xlink:href="#Arial-BoldMT-69" x="533.447266"/>
     <use xlink:href="#Arial-BoldMT-6c" x="561.230469"/>
     <use xlink:href="#Arial-BoldMT-69" x="589.013672"/>
     <use xlink:href="#Arial-BoldMT-74" x="616.796875"/>
     <use xlink:href="#Arial-BoldMT-79" x="650.097656"/>
     <use xlink:href="#Arial-BoldMT-20" x="705.712891"/>
     <use xlink:href="#Arial-BoldMT-62" x="733.496094"/>
     <use xlink:href="#Arial-BoldMT-79" x="794.580078"/>
     <use xlink:href="#Arial-BoldMT-20" x="850.195312"/>
     <use xlink:href="#Arial-BoldMT-53" x="877.978516"/>
     <use xlink:href="#Arial-BoldMT-74" x="944.677734"/>
     <use xlink:href="#Arial-BoldMT-61" x="977.978516"/>
     <use xlink:href="#Arial-BoldMT-74" x="1033.59375"/>
     <use xlink:href="#Arial-BoldMT-65" x="1066.894531"/>
     <use xlink:href="#Arial-BoldMT-20" x="1122.509766"/>
     <use xlink:href="#Arial-BoldMT-28" x="1150.292969"/>
     <use xlink:href="#Arial-BoldMT-32" x="1183.59375"/>
     <use xlink:href="#Arial-BoldMT-30" x="1239.208984"/>
     <use xlink:href="#Arial-BoldMT-32" x="1294.824219"/>
     <use xlink:href="#Arial-BoldMT-34" x="1350.439453"/>
     <use xlink:href="#Arial-BoldMT-29" x="1406.054688"/>
    </g>
    <!-- Average Outage Duration per Customer -->
    <g style="fill: #262626" transform="translate(234.612031 32.568) scale(0.14 -0.14)">
     <defs>
      <path id="Arial-BoldMT-41" d="M 4597 0 
L 3591 0 
L 3191 1041 
L 1359 1041 
L 981 0 
L 0 0 
L 1784 4581 
L 2763 4581 
L 4597 0 
z
M 2894 1813 
L 2263 3513 
L 1644 1813 
L 2894 1813 
z
" transform="scale(0.015625)"/>
      <path id="Arial-BoldMT-76" d="M 1372 0 
L 34 3319 
L 956 3319 
L 1581 1625 
L 1763 1059 
Q 1834 1275 1853 1344 
Q 1897 1484 1947 1625 
L 2578 3319 
L 3481 3319 
L 2163 0 
L 1372 0 
z
" transform="scale(0.015625)"/>
      <path id="Arial-BoldMT-67" d="M 378 -219 
L 1381 -341 
Q 1406 -516 1497 -581 
Q 1622 -675 1891 -675 
Q 2234 -675 2406 -572 
Q 2522 -503 2581 -350 
Q 2622 -241 2622 53 
L 2622 538 
Q 2228 0 1628 0 
Q 959 0 569 566 
Q 263 1013 263 1678 
Q 263 2513 664 2953 
Q 1066 3394 1663 3394 
Q 2278 3394 2678 2853 
L 2678 3319 
L 3500 3319 
L 3500 341 
Q 3500 -247 3403 -537 
Q 3306 -828 3131 -993 
Q 2956 -1159 2664 -1253 
Q 2372 -1347 1925 -1347 
Q 1081 -1347 728 -1058 
Q 375 -769 375 -325 
Q 375 -281 378 -219 
z
M 1163 1728 
Q 1163 1200 1367 954 
Q 1572 709 1872 709 
Q 2194 709 2416 961 
Q 2638 1213 2638 1706 
Q 2638 2222 2425 2472 
Q 2213 2722 1888 2722 
Q 1572 2722 1367 2476 
Q 1163 2231 1163 1728 
z
" transform="scale(0.015625)"/>
      <path id="Arial-BoldMT-4f" d="M 278 2263 
Q 278 2963 488 3438 
Q 644 3788 914 4066 
Q 1184 4344 1506 4478 
Q 1934 4659 2494 4659 
Q 3506 4659 4114 4031 
Q 4722 3403 4722 2284 
Q 4722 1175 4119 548 
Q 3516 -78 2506 -78 
Q 1484 -78 881 545 
Q 278 1169 278 2263 
z
M 1231 2294 
Q 1231 1516 1590 1114 
Q 1950 713 2503 713 
Q 3056 713 3411 1111 
Q 3766 1509 3766 2306 
Q 3766 3094 3420 3481 
Q 3075 3869 2503 3869 
Q 1931 3869 1581 3476 
Q 1231 3084 1231 2294 
z
" transform="scale(0.015625)"/>
      <path id="Arial-BoldMT-75" d="M 2644 0 
L 2644 497 
Q 2463 231 2167 78 
Q 1872 -75 1544 -75 
Q 1209 -75 943 72 
Q 678 219 559 484 
Q 441 750 441 1219 
L 441 3319 
L 1319 3319 
L 1319 1794 
Q 1319 1094 1367 936 
Q 1416 778 1544 686 
Q 1672 594 1869 594 
Q 2094 594 2272 717 
Q 2450 841 2515 1023 
Q 2581 1206 2581 1919 
L 2581 3319 
L 3459 3319 
L 3459 0 
L 2644 0 
z
" transform="scale(0.015625)"/>
      <path id="Arial-BoldMT-44" d="M 463 4581 
L 2153 4581 
Q 2725 4581 3025 4494 
Q 3428 4375 3715 4072 
Q 4003 3769 4153 3330 
Q 4303 2891 4303 2247 
Q 4303 1681 4163 1272 
Q 3991 772 3672 463 
Q 3431 228 3022 97 
Q 2716 0 2203 0 
L 463 0 
L 463 4581 
z
M 1388 3806 
L 1388 772 
L 2078 772 
Q 2466 772 2638 816 
Q 2863 872 3011 1006 
Q 3159 1141 3253 1448 
Q 3347 1756 3347 2288 
Q 3347 2819 3253 3103 
Q 3159 3388 2990 3547 
Q 2822 3706 2563 3763 
Q 2369 3806 1803 3806 
L 1388 3806 
z
" transform="scale(0.015625)"/>
      <path id="Arial-BoldMT-6f" d="M 256 1706 
Q 256 2144 472 2553 
Q 688 2963 1083 3178 
Q 1478 3394 1966 3394 
Q 2719 3394 3200 2905 
Q 3681 2416 3681 1669 
Q 3681 916 3195 420 
Q 2709 -75 1972 -75 
Q 1516 -75 1102 131 
Q 688 338 472 736 
Q 256 1134 256 1706 
z
M 1156 1659 
Q 1156 1166 1390 903 
Q 1625 641 1969 641 
Q 2313 641 2545 903 
Q 2778 1166 2778 1666 
Q 2778 2153 2545 2415 
Q 2313 2678 1969 2678 
Q 1625 2678 1390 2415 
Q 1156 2153 1156 1659 
z
" transform="scale(0.015625)"/>
      <path id="Arial-BoldMT-6e" d="M 3478 0 
L 2600 0 
L 2600 1694 
Q 2600 2231 2544 2389 
Q 2488 2547 2361 2634 
Q 2234 2722 2056 2722 
Q 1828 2722 1647 2597 
Q 1466 2472 1398 2265 
Q 1331 2059 1331 1503 
L 1331 0 
L 453 0 
L 453 3319 
L 1269 3319 
L 1269 2831 
Q 1703 3394 2363 3394 
Q 2653 3394 2893 3289 
Q 3134 3184 3257 3021 
Q 3381 2859 3429 2653 
Q 3478 2447 3478 2063 
L 3478 0 
z
" transform="scale(0.015625)"/>
      <path id="Arial-BoldMT-70" d="M 434 3319 
L 1253 3319 
L 1253 2831 
Q 1413 3081 1684 3237 
Q 1956 3394 2288 3394 
Q 2866 3394 3269 2941 
Q 3672 2488 3672 1678 
Q 3672 847 3265 386 
Q 2859 -75 2281 -75 
Q 2006 -75 1782 34 
Q 1559 144 1313 409 
L 1313 -1263 
L 434 -1263 
L 434 3319 
z
M 1303 1716 
Q 1303 1156 1525 889 
Q 1747 622 2066 622 
Q 2372 622 2575 867 
Q 2778 1113 2778 1672 
Q 2778 2194 2568 2447 
Q 2359 2700 2050 2700 
Q 1728 2700 1515 2451 
Q 1303 2203 1303 1716 
z
" transform="scale(0.015625)"/>
      <path id="Arial-BoldMT-43" d="M 3397 1684 
L 4294 1400 
Q 4088 650 3608 286 
Q 3128 -78 2391 -78 
Q 1478 -78 890 545 
Q 303 1169 303 2250 
Q 303 3394 893 4026 
Q 1484 4659 2447 4659 
Q 3288 4659 3813 4163 
Q 4125 3869 4281 3319 
L 3366 3100 
Q 3284 3456 3026 3662 
Q 2769 3869 2400 3869 
Q 1891 3869 1573 3503 
Q 1256 3138 1256 2319 
Q 1256 1450 1568 1081 
Q 1881 713 2381 713 
Q 2750 713 3015 947 
Q 3281 1181 3397 1684 
z
" transform="scale(0.015625)"/>
      <path id="Arial-BoldMT-73" d="M 150 947 
L 1031 1081 
Q 1088 825 1259 692 
Q 1431 559 1741 559 
Q 2081 559 2253 684 
Q 2369 772 2369 919 
Q 2369 1019 2306 1084 
Q 2241 1147 2013 1200 
Q 950 1434 666 1628 
Q 272 1897 272 2375 
Q 272 2806 612 3100 
Q 953 3394 1669 3394 
Q 2350 3394 2681 3172 
Q 3013 2950 3138 2516 
L 2309 2363 
Q 2256 2556 2107 2659 
Q 1959 2763 1684 2763 
Q 1338 2763 1188 2666 
Q 1088 2597 1088 2488 
Q 1088 2394 1175 2328 
Q 1294 2241 1995 2081 
Q 2697 1922 2975 1691 
Q 3250 1456 3250 1038 
Q 3250 581 2869 253 
Q 2488 -75 1741 -75 
Q 1063 -75 667 200 
Q 272 475 150 947 
z
" transform="scale(0.015625)"/>
      <path id="Arial-BoldMT-6d" d="M 394 3319 
L 1203 3319 
L 1203 2866 
Q 1638 3394 2238 3394 
Q 2556 3394 2790 3262 
Q 3025 3131 3175 2866 
Q 3394 3131 3647 3262 
Q 3900 3394 4188 3394 
Q 4553 3394 4806 3245 
Q 5059 3097 5184 2809 
Q 5275 2597 5275 2122 
L 5275 0 
L 4397 0 
L 4397 1897 
Q 4397 2391 4306 2534 
Q 4184 2722 3931 2722 
Q 3747 2722 3584 2609 
Q 3422 2497 3350 2280 
Q 3278 2063 3278 1594 
L 3278 0 
L 2400 0 
L 2400 1819 
Q 2400 2303 2353 2443 
Q 2306 2584 2207 2653 
Q 2109 2722 1941 2722 
Q 1738 2722 1575 2612 
Q 1413 2503 1342 2297 
Q 1272 2091 1272 1613 
L 1272 0 
L 394 0 
L 394 3319 
z
" transform="scale(0.015625)"/>
     </defs>
     <use xlink:href="#Arial-BoldMT-41"/>
     <use xlink:href="#Arial-BoldMT-76" x="68.466797"/>
     <use xlink:href="#Arial-BoldMT-65" x="124.082031"/>
     <use xlink:href="#Arial-BoldMT-72" x="179.697266"/>
     <use xlink:href="#Arial-BoldMT-61" x="218.613281"/>
     <use xlink:href="#Arial-BoldMT-67" x="274.228516"/>
     <use xlink:href="#Arial-BoldMT-65" x="335.3125"/>
     <use xlink:href="#Arial-BoldMT-20" x="390.927734"/>
     <use xlink:href="#Arial-BoldMT-4f" x="418.710938"/>
     <use xlink:href="#Arial-BoldMT-75" x="496.494141"/>
     <use xlink:href="#Arial-BoldMT-74" x="557.578125"/>
     <use xlink:href="#Arial-BoldMT-61" x="590.878906"/>
     <use xlink:href="#Arial-BoldMT-67" x="646.494141"/>
     <use xlink:href="#Arial-BoldMT-65" x="707.578125"/>
     <use xlink:href="#Arial-BoldMT-20" x="763.193359"/>
     <use xlink:href="#Arial-BoldMT-44" x="790.976562"/>
     <use xlink:href="#Arial-BoldMT-75" x="863.193359"/>
     <use xlink:href="#Arial-BoldMT-72" x="924.277344"/>
     <use xlink:href="#Arial-BoldMT-61" x="963.193359"/>
     <use xlink:href="#Arial-BoldMT-74" x="1018.808594"/>
     <use xlink:href="#Arial-BoldMT-69" x="1052.109375"/>
     <use xlink:href="#Arial-BoldMT-6f" x="1079.892578"/>
     <use xlink:href="#Arial-BoldMT-6e" x="1140.976562"/>
     <use xlink:href="#Arial-BoldMT-20" x="1202.060547"/>
     <use xlink:href="#Arial-BoldMT-70" x="1229.84375"/>
     <use xlink:href="#Arial-BoldMT-65" x="1290.927734"/>
     <use xlink:href="#Arial-BoldMT-72" x="1346.542969"/>
     <use xlink:href="#Arial-BoldMT-20" x="1385.458984"/>
     <use xlink:href="#Arial-BoldMT-43" x="1413.242188"/>
     <use xlink:href="#Arial-BoldMT-75" x="1485.458984"/>
     <use xlink:href="#Arial-BoldMT-73" x="1546.542969"/>
     <use xlink:href="#Arial-BoldMT-74" x="1602.158203"/>
     <use xlink:href="#Arial-BoldMT-6f" x="1635.458984"/>
     <use xlink:href="#Arial-BoldMT-6d" x="1696.542969"/>
     <use xlink:href="#Arial-BoldMT-65" x="1785.458984"/>
     <use xlink:href="#Arial-BoldMT-72" x="1841.074219"/>
    </g>
   </g>
   <g id="legend_1">
    <g id="patch_58">
     <path d="M 586.355625 782.180562 
L 606.355625 782.180562 
L 606.355625 775.180562 
L 586.355625 775.180562 
z
" style="fill: #2ecc71; stroke: #2ecc71; stroke-linejoin: miter"/>
    </g>
    <g id="text_60">
     <!-- &lt; 100 min (Good) -->
     <g style="fill: #262626" transform="translate(614.355625 782.180562) scale(0.1 -0.1)">
      <defs>
       <path id="ArialMT-3c" d="M 350 2003 
L 350 2528 
L 3384 3809 
L 3384 3250 
L 978 2263 
L 3384 1266 
L 3384 706 
L 350 2003 
z
" transform="scale(0.015625)"/>
       <path id="ArialMT-6d" d="M 422 0 
L 422 3319 
L 925 3319 
L 925 2853 
Q 1081 3097 1340 3245 
Q 1600 3394 1931 3394 
Q 2300 3394 2536 3241 
Q 2772 3088 2869 2813 
Q 3263 3394 3894 3394 
Q 4388 3394 4653 3120 
Q 4919 2847 4919 2278 
L 4919 0 
L 4359 0 
L 4359 2091 
Q 4359 2428 4304 2576 
Q 4250 2725 4106 2815 
Q 3963 2906 3769 2906 
Q 3419 2906 3187 2673 
Q 2956 2441 2956 1928 
L 2956 0 
L 2394 0 
L 2394 2156 
Q 2394 2531 2256 2718 
Q 2119 2906 1806 2906 
Q 1569 2906 1367 2781 
Q 1166 2656 1075 2415 
Q 984 2175 984 1722 
L 984 0 
L 422 0 
z
" transform="scale(0.015625)"/>
       <path id="ArialMT-6f" d="M 213 1659 
Q 213 2581 725 3025 
Q 1153 3394 1769 3394 
Q 2453 3394 2887 2945 
Q 3322 2497 3322 1706 
Q 3322 1066 3130 698 
Q 2938 331 2570 128 
Q 2203 -75 1769 -75 
Q 1072 -75 642 372 
Q 213 819 213 1659 
z
M 791 1659 
Q 791 1022 1069 705 
Q 1347 388 1769 388 
Q 2188 388 2466 706 
Q 2744 1025 2744 1678 
Q 2744 2294 2464 2611 
Q 2184 2928 1769 2928 
Q 1347 2928 1069 2612 
Q 791 2297 791 1659 
z
" transform="scale(0.015625)"/>
       <path id="ArialMT-64" d="M 2575 0 
L 2575 419 
Q 2259 -75 1647 -75 
Q 1250 -75 917 144 
Q 584 363 401 755 
Q 219 1147 219 1656 
Q 219 2153 384 2558 
Q 550 2963 881 3178 
Q 1213 3394 1622 3394 
Q 1922 3394 2156 3267 
Q 2391 3141 2538 2938 
L 2538 4581 
L 3097 4581 
L 3097 0 
L 2575 0 
z
M 797 1656 
Q 797 1019 1065 703 
Q 1334 388 1700 388 
Q 2069 388 2326 689 
Q 2584 991 2584 1609 
Q 2584 2291 2321 2609 
Q 2059 2928 1675 2928 
Q 1300 2928 1048 2622 
Q 797 2316 797 1656 
z
" transform="scale(0.015625)"/>
      </defs>
      <use xlink:href="#ArialMT-3c"/>
      <use xlink:href="#ArialMT-20" x="58.398438"/>
      <use xlink:href="#ArialMT-31" x="86.181641"/>
      <use xlink:href="#ArialMT-30" x="141.796875"/>
      <use xlink:href="#ArialMT-30" x="197.412109"/>
      <use xlink:href="#ArialMT-20" x="253.027344"/>
      <use xlink:href="#ArialMT-6d" x="280.810547"/>
      <use xlink:href="#ArialMT-69" x="364.111328"/>
      <use xlink:href="#ArialMT-6e" x="386.328125"/>
      <use xlink:href="#ArialMT-20" x="441.943359"/>
      <use xlink:href="#ArialMT-28" x="469.726562"/>
      <use xlink:href="#ArialMT-47" x="503.027344"/>
      <use xlink:href="#ArialMT-6f" x="580.810547"/>
      <use xlink:href="#ArialMT-6f" x="636.425781"/>
      <use xlink:href="#ArialMT-64" x="692.041016"/>
      <use xlink:href="#ArialMT-29" x="747.65625"/>
     </g>
    </g>
    <g id="patch_59">
     <path d="M 586.355625 796.564938 
L 606.355625 796.564938 
L 606.355625 789.564938 
L 586.355625 789.564938 
z
" style="fill: #f39c12; stroke: #f39c12; stroke-linejoin: miter"/>
    </g>
    <g id="text_61">
     <!-- 100-200 min (Fair) -->
     <g style="fill: #262626" transform="translate(614.355625 796.564938) scale(0.1 -0.1)">
      <defs>
       <path id="ArialMT-2d" d="M 203 1375 
L 203 1941 
L 1931 1941 
L 1931 1375 
L 203 1375 
z
" transform="scale(0.015625)"/>
      </defs>
      <use xlink:href="#ArialMT-31"/>
      <use xlink:href="#ArialMT-30" x="55.615234"/>
      <use xlink:href="#ArialMT-30" x="111.230469"/>
      <use xlink:href="#ArialMT-2d" x="166.845703"/>
      <use xlink:href="#ArialMT-32" x="200.146484"/>
      <use xlink:href="#ArialMT-30" x="255.761719"/>
      <use xlink:href="#ArialMT-30" x="311.376953"/>
      <use xlink:href="#ArialMT-20" x="366.992188"/>
      <use xlink:href="#ArialMT-6d" x="394.775391"/>
      <use xlink:href="#ArialMT-69" x="478.076172"/>
      <use xlink:href="#ArialMT-6e" x="500.292969"/>
      <use xlink:href="#ArialMT-20" x="555.908203"/>
      <use xlink:href="#ArialMT-28" x="583.691406"/>
      <use xlink:href="#ArialMT-46" x="616.992188"/>
      <use xlink:href="#ArialMT-61" x="678.076172"/>
      <use xlink:href="#ArialMT-69" x="733.691406"/>
      <use xlink:href="#ArialMT-72" x="755.908203"/>
      <use xlink:href="#ArialMT-29" x="789.208984"/>
     </g>
    </g>
    <g id="patch_60">
     <path d="M 586.355625 810.949313 
L 606.355625 810.949313 
L 606.355625 803.949313 
L 586.355625 803.949313 
z
" style="fill: #e74c3c; stroke: #e74c3c; stroke-linejoin: miter"/>
    </g>
    <g id="text_62">
     <!-- &gt; 200 min (Poor) -->
     <g style="fill: #262626" transform="translate(614.355625 810.949313) scale(0.1 -0.1)">
      <defs>
       <path id="ArialMT-3e" d="M 3384 2003 
L 350 706 
L 350 1266 
L 2753 2263 
L 350 3250 
L 350 3809 
L 3384 2528 
L 3384 2003 
z
" transform="scale(0.015625)"/>
      </defs>
      <use xlink:href="#ArialMT-3e"/>
      <use xlink:href="#ArialMT-20" x="58.398438"/>
      <use xlink:href="#ArialMT-32" x="86.181641"/>
      <use xlink:href="#ArialMT-30" x="141.796875"/>
      <use xlink:href="#ArialMT-30" x="197.412109"/>
      <use xlink:href="#ArialMT-20" x="253.027344"/>
      <use xlink:href="#ArialMT-6d" x="280.810547"/>
      <use xlink:href="#ArialMT-69" x="364.111328"/>
      <use xlink:href="#ArialMT-6e" x="386.328125"/>
      <use xlink:href="#ArialMT-20" x="441.943359"/>
      <use xlink:href="#ArialMT-28" x="469.726562"/>
      <use xlink:href="#ArialMT-50" x="503.027344"/>
      <use xlink:href="#ArialMT-6f" x="569.726562"/>
      <use xlink:href="#ArialMT-6f" x="625.341797"/>
      <use xlink:href="#ArialMT-72" x="680.957031"/>
      <use xlink:href="#ArialMT-29" x="714.257812"/>
     </g>
    </g>
   </g>
  </g>
 </g>
 <defs>
  <clipPath id="p2df02c3877">
   <rect x="26.809375" y="38.568" width="678.79" height="783.486"/>
  </clipPath>
 </defs>
</svg>
